<?xml version="1.0" encoding="UTF-8" standalone="no"?>
<!-- Created with Inkscape (http://www.inkscape.org/) -->

<svg
   version="1.1"
   id="svg1"
   width="90cm"
   height="15cm"
   viewBox="0 0 3401.575 566.92914"
   sodipodi:docname="Schriftlogo KONPLOTT.svg"
   inkscape:version="1.4 (86a8ad7, 2024-10-11)"
   xmlns:inkscape="http://www.inkscape.org/namespaces/inkscape"
   xmlns:sodipodi="http://sodipodi.sourceforge.net/DTD/sodipodi-0.dtd"
   xmlns="http://www.w3.org/2000/svg"
   xmlns:svg="http://www.w3.org/2000/svg">
  <defs
     id="defs1" />
  <sodipodi:namedview
     id="namedview1"
     pagecolor="#ffffff"
     bordercolor="#000000"
     borderopacity="0.25"
     inkscape:showpageshadow="2"
     inkscape:pageopacity="0.0"
     inkscape:pagecheckerboard="0"
     inkscape:deskcolor="#d1d1d1"
     inkscape:zoom="0.58913887"
     inkscape:cx="1699.9388"
     inkscape:cy="245.27324"
     inkscape:window-width="2560"
     inkscape:window-height="1369"
     inkscape:window-x="-8"
     inkscape:window-y="-8"
     inkscape:window-maximized="1"
     inkscape:current-layer="layer-Pr30"
     inkscape:document-units="cm">
    <inkscape:page
       x="0"
       y="0"
       inkscape:label="1"
       id="page1"
       width="3401.5752"
       height="566.92914"
       margin="0"
       bleed="0" />
  </sodipodi:namedview>
  <g
     id="layer-Pr12"
     inkscape:groupmode="layer"
     inkscape:label="BACKGROUND">
    <path
       id="path22"
       d="M -3e-4,595.2759 H 841.89 V -3e-4 H -3e-4 Z"
       style="fill:none;stroke:#ffffff;stroke-width:0.432;stroke-linecap:butt;stroke-linejoin:miter;stroke-miterlimit:2.61313;stroke-dasharray:none;stroke-opacity:1"
       transform="matrix(1.3333333,0,0,-1.3333333,0,793.7008)" />
  </g>
  <g
     id="layer-Pr28"
     inkscape:groupmode="layer"
     inkscape:label="STYLE" />
  <g
     id="layer-Pr29"
     inkscape:groupmode="layer"
     inkscape:label="SEAMS" />
  <g
     id="layer-Pr30"
     inkscape:groupmode="layer"
     inkscape:label="ARTWORK">
    <path
       id="path105"
       d="M 1879.8701,545.66605 V 23.192784 c 0,-5.128551 1.7887,-9.804314 4.6348,-13.154356 2.8644,-3.3684881 6.8415,-5.470712 11.1976,-5.470712 h 47.9293 c 4.3336,0 8.2819,2.0837791 11.1464,5.4235792 2.9259,3.4565898 4.686,8.1036648 4.686,13.2014888 V 481.42285 h 236.4708 c 4.3335,0 8.2819,2.08381 11.1463,5.41746 2.9259,3.45658 4.6859,8.10978 4.6859,13.20352 v 45.62222 c 0,5.12856 -1.7887,9.80428 -4.6469,13.17276 -2.8501,3.35005 -6.8292,5.45231 -11.1853,5.45231 h -300.2325 c -4.3439,0 -8.2922,-2.08381 -11.1566,-5.40721 -2.8973,-3.45455 -4.6758,-8.10775 -4.6758,-13.21786"
       style="fill:#231f20;fill-opacity:1;fill-rule:nonzero;stroke:none;stroke-width:20.4896" />
    <path
       id="path106"
       d="M 1495.6608,545.66605 V 23.192784 c 0,-5.128551 1.7827,-9.804314 4.6349,-13.154356 2.8623,-3.3684881 6.8353,-5.470712 11.1913,-5.470712 h 183.8966 c 10.587,0 20.9711,1.3584453 31.0663,4.0241655 5.065,1.3235961 9.9785,2.9791525 14.6543,4.9318205 l 0.4651,0.209097 c 4.6859,1.962911 9.2858,4.245458 13.6542,6.777944 8.9561,5.198249 17.3362,11.365608 25.1018,18.428381 7.7533,7.050491 14.9206,15.078334 21.4445,23.987238 3.2927,4.489272 6.3415,9.015395 9.1302,13.486272 l 0.377,0.657718 c 2.8111,4.558932 5.3949,9.089183 7.6897,13.514964 2.428,4.67572 4.7987,9.681324 7.0505,14.984034 2.1432,4.97695 4.1716,10.22229 5.9953,15.54344 1.887,5.51173 3.5303,10.93531 4.8888,16.25647 1.3769,5.39494 2.5449,10.90665 3.4689,16.43061 0.8995,5.38472 1.6084,10.97225 2.0899,16.72163 0.4939,5.8088 0.7315,11.41275 0.7315,16.77895 0,7.64467 -0.3769,15.35696 -1.1147,23.06517 -0.7314,7.64264 -1.8461,15.22178 -3.3151,22.61647 l -0.1021,0.45895 c -1.4343,7.16728 -3.2579,14.33455 -5.4236,21.45471 -2.2252,7.28814 -4.7987,14.37961 -7.6611,21.20473 -2.8747,6.85376 -6.1285,13.52724 -9.7285,19.95074 -3.4668,6.30259 -7.3824,12.38393 -11.5991,18.20913 -4.1287,5.67356 -8.6242,11.08694 -13.3982,16.16427 -4.7516,5.08143 -9.8288,9.83297 -15.1357,14.1706 -5.397,4.40939 -11.1587,8.35773 -17.2339,11.78567 -6.028,3.39718 -12.2363,6.22473 -18.6086,8.43351 -6.3436,2.18832 -12.9823,3.87256 -19.8053,4.98923 l -0.303,0.0424 c -6.7882,1.0757 -13.6769,1.63919 -20.629,1.63919 h -123.8803 v 174.17823 c 0,5.12854 -1.7908,9.80427 -4.6532,13.1728 -2.846,3.35004 -6.8251,5.45227 -11.1812,5.45227 h -47.9334 c -4.3438,0 -8.2943,-2.08378 -11.1566,-5.40723 -2.8993,-3.45455 -4.6696,-8.10773 -4.6696,-13.21784 z m 79.5941,-261.19565 h 122.0035 c 1.7252,0 3.3807,-0.0616 4.9482,-0.20485 1.6904,-0.14322 3.2824,-0.33192 4.7577,-0.56962 1.4507,-0.24989 2.9218,-0.57578 4.3787,-0.96507 1.4752,-0.39567 2.934,-0.85853 4.3437,-1.38101 1.3421,-0.4938 2.6555,-1.05318 3.9279,-1.66784 1.3359,-0.63927 2.6411,-1.34821 3.9033,-2.10222 l 0.4467,-0.2499 c 1.1966,-0.73149 2.3583,-1.51009 3.4668,-2.32968 l 0.013,-0.017 c 1.1781,-0.86669 2.305,-1.77234 3.3622,-2.70053 l 0.017,-0.017 c 1.1844,-1.02857 2.3687,-2.13707 3.5366,-3.30495 1.2539,-1.25398 2.4505,-2.52025 3.5713,-3.78035 1.1331,-1.30111 2.2538,-2.65956 3.346,-4.06514 1.045,-1.34824 2.0797,-2.7825 3.1021,-4.28234 l 0.5102,-0.69664 c 0.9179,-1.38714 1.7949,-2.79276 2.6083,-4.19218 0.8646,-1.50396 1.7253,-3.06729 2.5612,-4.66959 l 0.3608,-0.63928 c 0.7888,-1.57361 1.549,-3.15336 2.2477,-4.72285 0.7192,-1.61459 1.4098,-3.27427 2.0674,-4.95851 1.4753,-3.79467 2.7703,-7.6672 3.8787,-11.62375 1.1207,-4.00776 2.0571,-8.05449 2.7886,-12.10938 l 0.062,-0.38929 c 0.6966,-4.04261 1.2376,-8.20609 1.5921,-12.47 0.3544,-4.23313 0.5326,-8.59538 0.5326,-13.06829 0,-4.65111 -0.209,-9.09534 -0.6269,-13.31212 -0.4242,-4.29255 -1.0614,-8.46835 -1.9035,-12.51504 -0.4076,-1.95267 -0.8893,-3.94427 -1.4241,-5.96661 -0.545,-2.0264 -1.1268,-3.98931 -1.7416,-5.86616 -0.6515,-1.95062 -1.3359,-3.85 -2.0633,-5.69205 -0.7888,-2.00183 -1.6023,-3.93194 -2.4382,-5.75554 -0.8074,-1.76002 -1.7129,-3.6123 -2.7129,-5.53424 -0.9404,-1.80716 -1.8809,-3.49757 -2.8111,-5.05886 -1.0737,-1.78263 -2.1023,-3.39106 -3.055,-4.80279 -1.0041,-1.4814 -2.0961,-2.99764 -3.2579,-4.52001 l -0.4364,-0.60854 c -1.0798,-1.38922 -2.1719,-2.72513 -3.2701,-3.97908 -1.086,-1.24373 -2.2006,-2.44442 -3.3337,-3.58977 l -0.017,-0.017 c -1.1905,-1.20274 -2.4116,-2.36449 -3.637,-3.45047 -1.1494,-1.02241 -2.4567,-2.10223 -3.897,-3.22302 -2.5838,-2.01004 -5.1982,-3.747537 -7.8353,-5.210486 -2.6309,-1.462991 -5.354,-2.688245 -8.1487,-3.675839 -2.7702,-0.977359 -5.6162,-1.719099 -8.5257,-2.208816 -2.8809,-0.481472 -5.8724,-0.725336 -8.956,-0.725336 H 1575.2454 V 284.46251 Z"
       style="fill:#231f20;fill-opacity:1;fill-rule:nonzero;stroke:none;stroke-width:20.4896" />
    <path
       id="path107"
       d="m 1090.0646,185.22067 v 360.44538 c 0,5.12856 -1.7887,9.80428 -4.6532,13.17276 -2.846,3.35005 -6.8251,5.45231 -11.1792,5.45231 h -47.9355 c -4.3376,0 -8.2941,-2.08381 -11.1566,-5.40721 -2.8992,-3.45455 -4.6696,-8.10775 -4.6696,-13.21786 V 23.192784 c 0,-5.128551 1.7827,-9.804314 4.6349,-13.154356 2.8623,-3.3684881 6.8353,-5.470712 11.1913,-5.470712 h 41.3829 c 2.4342,0 4.7803,0.6843227 6.9051,1.8932126 2.1555,1.2191325 4.0774,3.0550137 5.5363,5.2555794 L 1334.0859,391.45494 V 23.920158 c 0,-5.12243 1.7886,-9.804314 4.6347,-13.156397 2.8624,-3.3684874 6.8414,-5.464591 11.1975,-5.464591 h 47.9396 c 4.3336,0 8.282,2.0838216 11.1464,5.423622 2.9259,3.456589 4.686,8.103622 4.686,13.197366 V 545.66605 c 0,5.12856 -1.7826,9.80428 -4.6471,13.17276 -2.85,3.35005 -6.8292,5.45231 -11.1853,5.45231 h -45.907 c -2.6206,0 -5.1572,-0.80114 -7.4336,-2.23541 -2.3071,-1.44659 -4.2823,-3.53037 -5.6982,-6.00552 z"
       style="fill:#231f20;fill-opacity:1;fill-rule:nonzero;stroke:none;stroke-width:20.4896" />
    <path
       id="path108"
       d="M 2951.3917,87.435949 H 2801.1371 V 545.66605 c 0,5.12856 -1.7887,9.80428 -4.6532,13.17276 -2.8439,3.35005 -6.823,5.45231 -11.1791,5.45231 h -47.9354 c -4.3439,0 -8.2922,-2.08381 -11.1567,-5.40721 -2.8973,-3.45455 -4.6695,-8.10775 -4.6695,-13.21786 V 87.435949 h -142.4194 c -4.3397,0 -8.2942,-2.083772 -11.1586,-5.407215 -2.8973,-3.45455 -4.6696,-8.101578 -4.6696,-13.211684 V 23.192784 c 0,-5.128551 1.7846,-9.804314 4.6347,-13.154356 2.8645,-3.3684881 6.8374,-5.470712 11.1935,-5.470712 h 732.5739 c 4.3315,0 8.282,2.0837791 11.1443,5.4235792 2.928,3.4565898 4.6819,8.1036648 4.6819,13.2014888 V 68.81705 c 0,5.122383 -1.7826,9.80223 -4.647,13.170716 -2.8461,3.352081 -6.823,5.448183 -11.1792,5.448183 H 3169.2661 V 545.66605 c 0,5.12856 -1.7846,9.80428 -4.647,13.17276 -2.8461,3.35005 -6.8252,5.45231 -11.1813,5.45231 h -47.9333 c -4.3459,0 -8.2942,-2.08381 -11.1587,-5.40721 -2.8972,-3.45455 -4.6695,-8.10775 -4.6695,-13.21786 V 87.435949 Z"
       style="fill:#231f20;fill-opacity:1;fill-rule:nonzero;stroke:none;stroke-width:20.4896" />
    <path
       id="path109"
       d="M 131.18483,545.66605 V 23.192784 c 0,-5.128551 1.78263,-9.804314 4.63475,-13.154356 2.86241,-3.3684881 6.83537,-5.470712 11.19145,-5.470712 h 47.93346 c 4.33356,0 8.28394,2.0837791 11.14635,5.4235792 2.92182,3.4565898 4.688,8.1036648 4.688,13.2014888 V 268.23646 L 418.60314,9.7065088 c 1.51009,-1.8932551 3.32136,-3.3398012 5.28631,-4.3212775 1.99772,-0.9978392 4.11022,-1.5326074 6.21449,-1.5326074 l 53.43903,0.017 c 4.33355,-0.0425 8.2819,2.0366468 11.14635,5.376448 2.92798,3.4566311 4.68596,8.1036651 4.68596,13.1973651 0,2.596065 -0.4692,5.144955 -1.32976,7.45211 l -0.44667,1.026526 c -0.77246,1.788749 -1.77239,3.38077 -2.92181,4.722853 L 322.77519,253.57058 505.48118,534.38506 c 2.60631,4.03645 3.61847,9.01337 3.08987,13.71165 -0.53482,4.70645 -2.59607,9.18961 -6.01781,12.29171 -1.4179,1.27651 -2.97308,2.24774 -4.54868,2.87474 l -0.70689,0.25414 c -1.45888,0.47739 -2.94027,0.74378 -4.36841,0.74378 l -54.7647,-0.017 c -2.76403,0.0425 -5.3949,-0.83188 -7.68973,-2.3358 -2.27643,-1.47528 -4.19424,-3.60619 -5.58137,-6.13872 L 272.2047,318.82342 l -61.33979,74.76666 -0.082,152.07405 c 0,5.12854 -1.78875,9.80426 -4.6532,13.17275 -2.846,3.35004 -6.82512,5.4523 -11.18121,5.4523 h -47.93341 c -4.33769,0 -8.29424,-2.08381 -11.15665,-5.40721 -2.89925,-3.45455 -4.66955,-8.10774 -4.66955,-13.21784"
       style="fill:#231f20;fill-opacity:1;fill-rule:nonzero;stroke:none;stroke-width:20.4896" />
    <path
       id="path110"
       d="m 731.32201,0.7914484 c 123.76965,0 224.10523,126.9885816 224.10523,283.6318116 0,156.64939 -100.33558,283.63793 -224.10523,283.63793 -123.77582,0 -224.11149,-126.98854 -224.11149,-283.63793 0,-156.64323 100.33567,-283.6318116 224.11149,-283.6318116 z m 0,88.8881266 c 78.82771,0 142.73279,87.189525 142.73279,194.743685 0,107.56033 -63.90508,194.74572 -142.73279,194.74572 -78.83388,0 -142.73897,-87.18539 -142.73897,-194.74572 0,-107.55416 63.90509,-194.743685 142.73897,-194.743685"
       style="fill:#231f20;fill-opacity:1;fill-rule:evenodd;stroke:none;stroke-width:20.4896" />
    <path
       id="path111"
       d="m 2384.4826,0.7914484 c 123.7757,0 224.1115,126.9885816 224.1115,283.6318116 0,156.64939 -100.3358,283.63793 -224.1115,283.63793 -123.7697,0 -224.1054,-126.98854 -224.1054,-283.63793 0,-156.64323 100.3357,-283.6318116 224.1054,-283.6318116 z m 0,88.8881266 c 78.8339,0 142.739,87.189525 142.739,194.743685 0,107.56033 -63.9051,194.74572 -142.739,194.74572 -78.8338,0 -142.7329,-87.18539 -142.7329,-194.74572 0,-107.55416 63.8991,-194.743685 142.7329,-194.743685"
       style="fill:#231f20;fill-opacity:1;fill-rule:evenodd;stroke:none;stroke-width:20.4896" />
  </g>
  <g
     id="layer-Pr31"
     inkscape:groupmode="layer"
     inkscape:label="COLOUR" />
  <g
     id="layer-Pr32"
     inkscape:groupmode="layer"
     inkscape:label="MEASURE" />
  <g
     id="layer-Pr33"
     inkscape:groupmode="layer"
     inkscape:label="INFO" />
</svg>
