<?xml version="1.0" encoding="UTF-8" standalone="no"?>
<svg
   version="1.1"
   width="1.4027296in"
   height="2.0247438in"
   viewBox="0 0 100.99666 145.78185"
   id="svg110"
   sodipodi:docname="Oval.svg"
   inkscape:version="1.4 (86a8ad7, 2024-10-11)"
   xmlns:inkscape="http://www.inkscape.org/namespaces/inkscape"
   xmlns:sodipodi="http://sodipodi.sourceforge.net/DTD/sodipodi-0.dtd"
   xmlns="http://www.w3.org/2000/svg"
   xmlns:svg="http://www.w3.org/2000/svg">
  <defs
     id="defs110" />
  <sodipodi:namedview
     id="namedview110"
     pagecolor="#ffffff"
     bordercolor="#000000"
     borderopacity="0.25"
     inkscape:showpageshadow="2"
     inkscape:pageopacity="0.0"
     inkscape:pagecheckerboard="0"
     inkscape:deskcolor="#d1d1d1"
     inkscape:document-units="in"
     showgrid="false"
     inkscape:zoom="1.4703303"
     inkscape:cx="363.1837"
     inkscape:cy="154.72714"
     inkscape:window-width="2560"
     inkscape:window-height="1369"
     inkscape:window-x="-8"
     inkscape:window-y="-8"
     inkscape:window-maximized="1"
     inkscape:current-layer="svg110" />
  <path
     d="m 41.15271,-181.54688 v 14.2643"
     style="fill:#1b1918;fill-rule:evenodd;stroke:#1b1918;stroke-width:0.216;stroke-linecap:butt;stroke-linejoin:miter;stroke-dasharray:none"
     id="path2" />
  <path
     d="m -379.79249,-181.60898 v 595.2762 h 841.8903 v -595.2762 z"
     style="fill:none;stroke:#ffffff;stroke-width:0.432;stroke-linecap:butt;stroke-linejoin:miter;stroke-dasharray:none"
     id="path19" />
  <g
     id="Layer1017"
     transform="translate(-547.6119,-196.4013)">
    <path
       d="M 456.3779,155.9055 H 739.8425 V 439.3701 H 456.3779 Z"
       style="fill:none;stroke:#b1b3b4;stroke-width:0.216;stroke-linecap:butt;stroke-linejoin:miter;stroke-dasharray:none"
       id="path100" />
  </g>
  <path
     d="m 50.4986,145.7818 c 3.8378,0 7.6598,-0.6072 11.3635,-1.798 3.5068,-1.1273 6.9245,-2.7882 10.1571,-4.936 5.9905,-3.9824 11.2834,-9.5493 15.7369,-16.5472 8.5382,-13.4212 13.2406,-31.0382 13.2406,-49.6097 0,-18.5715 -4.7024,-36.1922 -13.2406,-49.6137 C 83.3026,16.2799 78.0097,10.7163 72.0192,6.7339 68.7866,4.5827 65.3689,2.9213 61.8621,1.794 58.1584,0.6035 54.3364,0 50.4986,0 46.6622,0 42.8386,0.6035 39.1345,1.794 35.6278,2.9213 32.2101,4.5827 28.9777,6.7339 22.989,10.7163 17.6941,16.2799 13.2426,23.2772 4.7024,36.6987 0,54.3194 0,72.8909 c 0,18.5715 4.7024,36.1885 13.2426,49.6097 4.4515,6.9979 9.7464,12.5648 15.7351,16.5472 3.2324,2.1478 6.6501,3.8087 10.1568,4.936 3.7041,1.1908 7.5277,1.798 11.3641,1.798 z m 0,-0.9003 c 3.7429,0 7.4744,-0.5907 11.0883,-1.7515 3.4291,-1.1038 6.7717,-2.7283 9.9349,-4.8331 5.8841,-3.9121 11.0919,-9.3886 15.4757,-16.2799 8.4487,-13.278 13.1012,-30.725 13.1012,-49.1261 0,-18.4045 -4.6525,-35.852 -13.1012,-49.1301 C 82.6137,16.8698 77.4059,11.393 71.5218,7.4809 68.3586,5.3798 65.016,3.7519 61.5869,2.6512 57.973,1.4876 54.2415,0.8968 50.4986,0.8968 c -3.7431,0 -7.473,0.5908 -11.0888,1.7544 C 35.9807,3.7519 32.6387,5.3798 29.4749,7.4809 23.5907,11.393 18.3846,16.8698 14.0011,23.7608 5.5505,37.0389 0.898,54.4864 0.898,72.8909 c 0,18.4011 4.6525,35.8481 13.1031,49.1261 4.3835,6.8913 9.5896,12.3678 15.4738,16.2799 3.1638,2.1048 6.5058,3.7293 9.9349,4.8331 3.6158,1.1608 7.3457,1.7515 11.0888,1.7515 z M 13.0674,73.3076 c 0,-32.6067 16.7638,-59.1324 37.3714,-59.1324 20.6082,0 37.3731,26.5257 37.3731,59.1324 0,32.6035 -16.7649,59.1259 -37.3731,59.1259 -20.6076,0 -37.3714,-26.5224 -37.3714,-59.1259 z m 37.3714,60.4933 c 5.2739,0 10.385,-1.6206 15.1909,-4.8127 4.6119,-3.0685 8.748,-7.448 12.2944,-13.0243 3.5323,-5.5505 6.3043,-12.011 8.2392,-19.1985 1.9995,-7.431 3.0141,-15.3264 3.0141,-23.4578 0,-8.1383 -1.0146,-16.0297 -3.0141,-23.461 -1.9349,-7.1909 -4.7069,-13.6513 -8.2392,-19.2013 -3.5464,-5.5737 -7.6825,-9.9564 -12.2944,-13.0218 -4.8059,-3.1946 -9.917,-4.8126 -15.1909,-4.8126 -5.2738,0 -10.3839,1.618 -15.1909,4.8126 -4.6108,3.0654 -8.7482,7.4481 -12.2927,13.0218 -3.5322,5.55 -6.3045,12.0104 -8.2397,19.2013 -2.001,7.4313 -3.0135,15.3227 -3.0135,23.461 0,8.1314 1.0125,16.0268 3.0135,23.4578 1.9352,7.1875 4.7075,13.648 8.2397,19.1985 3.5445,5.5763 7.6819,9.9558 12.2927,13.0243 4.807,3.1921 9.9171,4.8127 15.1909,4.8127 z M 8.4467,52.0815 4.0274,53.202 l -0.003,0.0198 6.1172,3.2724 0.6037,-1.5843 -2.9653,-1.2708 0.005,-0.0167 3.4487,-0.8274 0.005,-0.0165 -2.7128,-2.4117 0.003,-0.0198 3.2327,0.1638 0.1448,-1.6614 -6.9211,0.2038 -0.003,0.0199 z M 5.8821,46.1744 12.2865,48.1325 12.6198,46.5179 6.2141,44.56 Z m 2.7933,-4.2492 c 0.2047,-0.644 0.5199,-1.1474 1.264,-0.8773 0.7341,0.2701 0.7645,0.8643 0.4779,1.508 z m 4.4178,3.3523 0.4153,-1.5948 -2.7193,-0.9904 0.006,-0.0165 3.5978,-0.7472 0.0697,-1.7379 -2.9787,0.8141 C 11.479,40.2842 10.9177,39.6606 10.2739,39.4239 8.8569,38.9097 7.9637,39.7873 7.437,41.2381 l -0.6375,1.7476 z m -3.1394,-10.84 4.5851,5.9066 0.9561,-1.317 -1.0259,-1.1875 1.0259,-2.298 1.5695,-0.0403 0.3719,-1.6645 -7.4746,0.5809 z m 2.4341,1.0837 1.8369,-0.1432 -0.7135,1.6042 z m 8.6837,-7.081 -5.9389,-3.5685 -0.7129,1.4876 3.0439,1.8244 -5.4074,1.8077 -0.009,0.0164 5.8709,3.526 0.7132,-1.4848 -3.0425,-1.8277 5.4735,-1.764 z m 0.5859,-1.2639 1.4137,-1.8108 c 1.159,-1.4848 0.9575,-3.5623 -0.5168,-4.7163 -1.4749,-1.1511 -3.5416,-0.8444 -4.6996,0.6404 l -1.415,1.8107 z m -3.1056,-4.5097 0.316,-0.403 c 0.6531,-0.8377 1.8786,-0.9474 2.6754,-0.3206 0.7999,0.6239 0.9901,1.8377 0.3365,2.675 l -0.3155,0.4037 z m 4.5048,-7.471 2.0361,7.1941 1.3813,-0.8634 -0.5071,-1.4814 1.8128,-1.7507 1.4714,0.5536 0.9658,-1.4043 -7.1475,-2.2612 z m 1.8496,1.9177 1.7566,0.5539 -1.2622,1.2209 z m 4.8926,-7.2876 3.4481,5.7367 1.3266,-0.9739 -1.5747,-2.6246 0.042,-0.0238 3.5546,1.7044 1.2578,-1.2639 -3.568,-1.5713 0.3798,-3.5816 -1.6049,0.457 -0.3544,3.702 L 32.6656,11.41 31.125,8.8483 Z M 39.8925,6.4201 C 40.8892,6.1134 41.9774,6.7708 42.275,7.738 42.5701,8.7086 42.0355,9.8625 41.0386,10.1658 40.0425,10.4694 38.9525,9.8155 38.6577,8.8449 38.3615,7.8777 38.8961,6.7237 39.8925,6.4201 Z M 39.4531,4.9796 c -1.8467,0.5635 -2.9284,2.5013 -2.3649,4.3461 0.5635,1.8442 2.5435,2.8448 4.3903,2.2779 1.8462,-0.5638 2.9299,-2.4982 2.3649,-4.3458 -0.5635,-1.8451 -2.5455,-2.842 -4.3903,-2.2782 z m 12.1417,5.1962 -0.362,-6.9177 -1.6311,0.237 0.1851,3.549 -4.5204,-3.4756 -0.0192,0.003 0.3588,6.8408 1.6294,-0.24 -0.1854,-3.5487 4.5252,3.5518 z M 58.0632,4.9926 C 57.5674,4.4158 56.8556,4.0056 56.1041,3.8755 54.9258,3.6654 53.6023,4.1791 53.3738,5.4694 52.9616,7.8077 55.9865,7.7142 55.8062,8.7284 55.7336,9.1485 55.1815,9.2185 54.8501,9.1587 54.3654,9.072 53.958,8.8251 53.7151,8.418 l -1.1866,1.0673 c 0.5233,0.6406 1.3181,1.0272 2.1266,1.1675 1.3589,0.2401 2.624,-0.2732 2.8834,-1.7342 0.4201,-2.3947 -2.6161,-2.2351 -2.4324,-3.272 0.0606,-0.3402 0.5181,-0.4371 0.8033,-0.3872 0.5023,0.0901 0.758,0.3104 1.0721,0.697 z m 2.9075,1.8681 -1.8593,4.8461 1.5874,0.4439 1.8045,-4.7033 1.4874,0.5738 0.5394,-1.4074 -4.2165,-1.6178 -0.9284,1.2578 z m 7.6611,1.7577 -6.4216,3.8291 1.1914,1.1103 1.3009,-0.8702 2.1583,1.2974 -0.1508,1.5638 1.6052,0.5709 0.3331,-7.4916 z m -1.3714,2.2845 -0.0822,1.8413 -1.5066,-0.9039 z m 5.6393,9.7191 4.5465,-5.2293 -1.3394,-0.961 -2.3295,2.6816 -0.8408,-5.6398 -0.0124,-0.0136 -4.4949,5.1698 1.3391,0.9607 2.3281,-2.6813 0.7888,5.6965 z m 5.5009,-1.6704 -3.918,3.4052 1.1911,1.1373 3.8024,-3.3052 1.0448,1.2004 1.1364,-0.987 -2.9636,-3.4089 -1.4085,0.6738 z m 4.1151,2.6912 -5.4173,3.9356 1.0882,1.2345 5.4176,-3.9328 z m -0.5894,11.5574 5.9403,-3.5657 -0.9785,-1.3278 -3.043,1.8278 0.9454,-5.6231 -0.0111,-0.0133 -5.8731,3.5289 0.9785,1.3237 3.0427,-1.8277 -1.0108,5.6602 z m 6.6501,-1.6682 -6.0191,2.9356 0.8581,1.4037 6.0196,-2.935 z m -4.5346,5.6937 0.8612,2.1313 c 0.7053,1.7442 2.6062,2.6082 4.3418,1.9077 1.7354,-0.7004 2.5005,-2.645 1.7966,-4.3894 l -0.8611,-2.128 z m 5.4559,-0.4337 0.1913,0.4739 c 0.3977,0.9836 -0.1205,2.1008 -1.0593,2.4781 -0.94,0.3804 -2.0863,-0.0635 -2.484,-1.0477 l -0.1916,-0.4734 z m 3.0699,8.3284 c 0.3056,0.9973 -0.3509,2.0846 -1.3201,2.3817 -0.9677,0.2968 -2.12,-0.2407 -2.4262,-1.2373 -0.3055,-0.9975 0.3529,-2.0849 1.3201,-2.3783 0.9692,-0.3002 2.122,0.2367 2.4262,1.2339 z m 1.4408,-0.4405 c -0.5649,-1.8442 -2.5001,-2.9282 -4.3469,-2.3641 -1.8442,0.5636 -2.8443,2.5447 -2.2793,4.3892 0.5635,1.8476 2.4999,2.9279 4.3449,2.3647 1.8468,-0.5636 2.8449,-2.545 2.2813,-4.3898 z m 2.4855,10.3734 -0.4924,-1.5709 -3.5405,0.7503 c -0.8867,0.1902 -1.6401,0.2202 -1.8606,-0.8172 -0.1693,-0.8034 0.3636,-1.124 1.0527,-1.2705 l 4.0408,-0.8575 -0.4926,-1.5741 -4.3436,0.9235 c -1.574,0.3371 -2.0588,1.5449 -1.7367,3.0521 0.3444,1.6245 1.4828,2.6184 2.9925,2.2952 z m -26.8716,81.6696 c 0.3574,-0.0601 0.7064,-0.2333 1.006,-0.4434 1.6452,-1.1508 1.9429,-3.1989 0.8098,-4.82 -1.18,-1.6841 -3.1393,-2.0081 -4.7908,-0.8501 -0.2466,0.1701 -0.6732,0.5867 -0.8098,0.8603 l 0.8416,1.5576 c 0.1389,-0.407 0.3739,-0.864 0.7375,-1.1205 0.9545,-0.667 2.0396,-0.4136 2.6981,0.5238 0.6536,0.9338 0.4654,2.0441 -0.4525,2.6878 -0.3619,0.2537 -0.8229,0.3036 -1.2588,0.3036 z m -8.4246,-2.9452 0.2735,1.4275 2.3134,-1.1738 0.5783,1.1341 -1.5217,0.7736 0.6341,1.2475 1.5217,-0.777 0.5233,1.0239 -2.1334,1.0871 0.8935,1.114 3.3355,-1.6977 -3.0036,-5.9003 z m -1.0111,5.8804 c -0.6375,0.2234 -1.2268,0.2736 -1.4584,-0.4838 -0.2285,-0.747 0.2304,-1.1305 0.9158,-1.2907 z m 0.019,-5.5468 -1.5228,0.6273 0.8473,2.768 -0.0199,0.007 -2.7592,-2.4281 -1.4326,0.9938 2.4437,1.8879 c -0.5729,0.4371 -0.7339,1.2608 -0.5326,1.9179 0.4394,1.4409 1.6775,1.6274 3.1538,1.1738 l 1.7819,-0.5431 z m -6.0205,6.774 -0.5426,-5.1597 -1.6163,0.3235 0.5267,5.0096 -1.5843,0.167 0.1576,1.4978 4.4915,-0.4739 0.2563,-1.5409 z m -4.902,1.7379 0.351,-6.6875 -1.6473,0.0669 -0.3489,6.6875 z m -5.1052,-2.0311 -2.2135,-0.3903 0.1272,1.5511 3.4407,0.6069 1.1634,-6.5973 -1.6302,-0.2067 -0.3977,2.2609 -1.607,-0.2831 -0.2432,1.3773 1.6067,0.2835 z m -4.1017,0.5667 2.1813,-6.3301 -1.6019,-0.3874 -2.1796,6.3308 z m -4.189,-8.8518 -0.9593,1.0937 2.3533,1.1006 -0.5374,1.1546 -1.5486,-0.7209 -0.5913,1.264 1.5474,0.7237 -0.4847,1.0409 -2.1702,-1.0103 -0.3282,1.3907 3.3939,1.5809 2.7975,-6.0004 z m -1.0718,-0.5105 -1.8596,-1.3507 c -1.5213,-1.1075 -3.5934,-0.8305 -4.693,0.68 -1.1013,1.5183 -0.7197,3.5726 0.8019,4.6766 l 1.8576,1.3508 z m -4.3968,3.2587 -0.4142,-0.3002 c -0.8592,-0.6236 -1.0108,-1.8442 -0.415,-2.6648 0.5953,-0.8172 1.8029,-1.0508 2.6609,-0.4269 l 0.4139,0.3002 z m -3.1439,-9.8796 c -0.2642,-1.1137 -1.1319,-2.2977 -2.6516,-3.615 -0.9519,-0.8175 -2.2444,-1.9145 -2.9384,-2.505 0.1724,1.2073 0.1968,2.0645 0.1968,2.4514 0,0.023 0,0.0434 0,0.0633 0.9433,0.4467 1.9445,1.3974 2.3453,1.8014 0.224,0.2236 1.3425,1.3742 1.3459,1.8442 0,0.007 0,0.0136 0,0.0198 0,1.0673 -0.4524,1.5245 -0.7245,1.7011 -0.3027,0.2004 -0.6582,0.2441 -0.9513,0.1171 l -0.0644,-0.0301 c -2.9267,-1.2376 -3.9217,-3.8491 -4.2403,-5.8237 v -0.007 l -0.002,-0.003 c -0.0368,-0.3036 -0.053,-0.614 -0.053,-0.9343 0,-1.3873 0.3402,-2.9282 1.0176,-4.5992 0,0 0.0145,-0.0334 0.0273,-0.0669 -1.5758,-2.9716 -4.4156,-5.8436 -4.8328,-6.2572 -1.3445,-0.21 -2.1909,-0.4901 -2.8721,-0.7169 -0.3251,-0.1102 -0.6038,-0.2038 -0.8691,-0.2636 l -0.1627,-0.0402 -0.021,-0.1667 c -0.0995,-0.8969 -0.3991,-2.2581 -0.663,-3.462 -0.3575,-1.6211 -0.5411,-2.5115 -0.5411,-2.9718 0,-0.1267 0.0144,-0.2237 0.0453,-0.29 0.1976,-0.4572 1.1169,-0.8906 3.0569,-1.4477 0,-0.0136 0.003,-0.03 0.003,-0.0464 0,-0.4241 -0.43,-1.6512 -0.8133,-2.7488 C 12.2263,95.214 11.2928,92.5392 10.9416,89.9345 10.7792,89.9175 10.293,89.9707 9.2561,90.3546 8.366,90.6845 7.466,91.1151 6.9668,91.4518 L 6.6871,91.6387 6.6034,91.3149 C 6.3217,90.2108 5.9623,85.3148 6.6193,84.1739 l 0.0822,-0.1434 1.2107,0.21 c 1.228,0.2203 1.6421,0.2804 1.8272,0.1004 0.0547,-0.1466 0.0757,-0.6438 0.0757,-1.3111 0,-0.9839 -0.0434,-2.3346 -0.0791,-3.4387 -0.0388,-1.2441 -0.0788,-2.5149 -0.0788,-3.4787 0,-0.3435 0.005,-0.6471 0.0176,-0.8974 -1.1798,-1.6342 -2.9863,-4.3092 -2.9863,-5.3595 0,-0.1037 0.0176,-0.1905 0.0547,-0.2605 l 0.1097,-0.1834 c 1.9349,-3.1887 3.0637,-6.3071 3.2743,-9.0388 -2.4758,-0.5136 -5.0151,-0.6738 -5.802,-0.6902 -0.0722,1.2605 -0.6516,4.4824 -0.9788,5.5 0.2302,0.08 0.4298,0.15 0.5956,0.2101 0.3866,0.1366 0.6341,0.2231 0.8192,0.2497 0.5973,-1.2671 1.5182,-3.2281 1.5506,-3.6686 l 0.0178,-0.2435 0.243,0.0235 c 0.314,0.0332 0.5363,0.0298 0.697,0.0267 0.2577,-0.007 0.4589,-0.0102 0.6072,0.1865 l 0.0592,0.0836 -0.0159,0.0998 c -0.7727,4.8467 -3.0957,7.7882 -4.2131,9.199 -0.1757,0.2236 -0.3555,0.4504 -0.4476,0.5904 2.6626,2.4118 4.7557,4.6761 4.7747,4.6993 l 0.0581,0.0601 0.005,0.0868 c 0.003,0.0569 0.006,0.1136 0.006,0.1703 0,0.4337 -0.0742,0.9774 -0.1564,1.5911 -0.1015,0.7634 -0.2155,1.624 -0.2155,2.4644 0,0.0505 0,0.097 0,0.1472 l 0.003,0.2299 -0.2285,0.013 C 6.3422,81.4626 4.3216,81.6057 3.6467,81.659 3.8224,86.7055 4.685,93.0628 6.0374,95.9575 7.2388,94.7973 9.043,93.3397 9.0626,93.3261 l 0.3254,-0.2633 0.0592,0.417 c 0.3813,2.645 1.0738,4.2457 1.446,4.676 l 0.2409,0.2803 -0.3537,0.1032 c -2.1541,0.6341 -2.9767,1.4179 -3.3276,1.7541 0.0677,0.2304 0.3688,1.2611 0.3688,1.2611 0.9238,3.1887 2.315,7.9781 3.9038,10.1027 1.8607,0.0301 3.221,0.2135 4.2177,0.9975 1.0593,0.8303 1.6824,2.3213 2.022,4.8359 0.1159,0.8507 0.1547,1.5715 0.1547,2.1915 0,0.6239 -0.0388,1.1506 -0.0711,1.6177 -0.0269,0.3773 -0.0513,0.7169 -0.0513,1.0409 0,1.2441 0.3588,2.2581 2.3006,4.3557 2.0798,2.2445 3.7621,2.4517 4.8087,2.228 1.114,-0.2366 1.7642,-1.0105 1.9108,-1.4439 l 0.0289,-0.087 c 0.1517,-0.4366 0.3141,-0.9139 0.3141,-1.4877 0,-0.2265 -0.0255,-0.47 -0.0867,-0.7305 z m 46.277,0 c 0.2639,-1.1137 1.1318,-2.2977 2.6512,-3.615 0.9519,-0.8175 2.2445,-1.9145 2.9367,-2.505 -0.1706,1.2073 -0.1964,2.0645 -0.1964,2.4514 0,0.023 0,0.0434 0,0.0633 -0.9414,0.4467 -1.9429,1.3974 -2.344,1.8014 -0.2237,0.2236 -1.3442,1.3742 -1.3476,1.8442 0,0.007 0,0.0136 0,0.0198 0,1.0673 0.4541,1.5245 0.7262,1.7011 0.3011,0.2004 0.6585,0.2441 0.9513,0.1171 l 0.0647,-0.0301 c 2.9265,-1.2376 3.9214,-3.8491 4.2386,-5.8237 l 0.003,-0.007 v -0.003 c 0.0354,-0.3036 0.0533,-0.614 0.0533,-0.9343 0,-1.3873 -0.3416,-2.9282 -1.0179,-4.5992 0,0 -0.0125,-0.0334 -0.0269,-0.0669 1.576,-2.9716 4.4141,-5.8436 4.8308,-6.2572 1.3461,-0.21 2.1931,-0.4901 2.8751,-0.7169 0.324,-0.1102 0.6024,-0.2038 0.8666,-0.2636 l 0.1658,-0.0402 0.0173,-0.1667 c 0.1018,-0.8969 0.4008,-2.2581 0.6653,-3.462 0.3572,-1.6211 0.5389,-2.5115 0.5389,-2.9718 0,-0.1267 -0.0125,-0.2237 -0.0434,-0.29 -0.1976,-0.4572 -1.1169,-0.8906 -3.0552,-1.4477 -0.003,-0.0136 -0.003,-0.03 -0.003,-0.0464 0,-0.4241 0.428,-1.6512 0.8127,-2.7488 0.6846,-1.9644 1.6183,-4.6392 1.9692,-7.2439 0.1627,-0.017 0.6486,0.0362 1.6841,0.4201 0.8918,0.3299 1.7898,0.7605 2.2921,1.0972 l 0.2803,0.1869 0.082,-0.3238 c 0.2817,-1.1041 0.6409,-6.0001 -0.0159,-7.141 l -0.0822,-0.1434 -1.2104,0.21 c -1.23,0.2203 -1.6441,0.2804 -1.8272,0.1004 -0.0564,-0.1466 -0.0757,-0.6438 -0.0757,-1.3111 0,-0.9839 0.0417,-2.3346 0.0771,-3.4387 0.0402,-1.2441 0.0805,-2.5149 0.0805,-3.4787 0,-0.3435 -0.007,-0.6471 -0.0179,-0.8974 1.1801,-1.6342 2.9852,-4.3092 2.9852,-5.3595 0,-0.1037 -0.0184,-0.1905 -0.0533,-0.2605 l -0.11,-0.1834 c -1.9349,-3.1887 -3.0634,-6.3071 -3.2757,-9.0388 2.4778,-0.5136 5.0165,-0.6738 5.8034,-0.6902 0.0711,1.2605 0.652,4.4824 0.9805,5.5 -0.2319,0.08 -0.4314,0.15 -0.5987,0.2101 -0.3849,0.1366 -0.6313,0.2231 -0.8178,0.2497 -0.5972,-1.2671 -1.5199,-3.2281 -1.5505,-3.6686 l -0.0176,-0.2435 -0.2444,0.0235 c -0.3126,0.0332 -0.5346,0.0298 -0.6973,0.0267 -0.2559,-0.007 -0.4589,-0.0102 -0.6057,0.1865 l -0.061,0.0836 0.0162,0.0998 c 0.7744,4.8467 3.0974,7.7882 4.2145,9.199 0.1758,0.2236 0.3544,0.4504 0.4476,0.5904 -2.6612,2.4118 -4.7554,4.6761 -4.7767,4.6993 l -0.0578,0.0601 -0.005,0.0868 c -0.003,0.0569 -0.003,0.1136 -0.003,0.1703 0,0.4337 0.0709,0.9774 0.1548,1.5911 0.1012,0.7634 0.2171,1.624 0.2171,2.4644 0,0.0505 -0.002,0.097 -0.003,0.1472 l -0.001,0.2299 0.2284,0.013 c 1.1639,0.0607 3.1842,0.2038 3.8588,0.2571 -0.1757,5.0465 -1.0383,11.4038 -2.3907,14.2985 -1.2008,-1.1602 -3.0056,-2.6178 -3.0251,-2.6314 l -0.3249,-0.2633 -0.0598,0.417 c -0.3813,2.645 -1.0738,4.2457 -1.4457,4.676 l -0.2432,0.2803 0.3558,0.1032 c 2.1543,0.6341 2.9752,1.4179 3.3276,1.7541 -0.0672,0.2304 -0.3703,1.2611 -0.3703,1.2611 -0.924,3.1887 -2.3116,7.9781 -3.9021,10.1027 -1.8596,0.0301 -3.221,0.2135 -4.2197,0.9975 -1.0576,0.8303 -1.6804,2.3213 -2.0219,4.8359 -0.116,0.8507 -0.1528,1.5715 -0.1528,2.1915 0,0.6239 0.0385,1.1506 0.0708,1.6177 0.0273,0.3773 0.0514,0.7169 0.0514,1.0409 0,1.2441 -0.3575,2.2581 -2.3018,4.3557 -2.0772,2.2445 -3.7607,2.4517 -4.807,2.228 -1.116,-0.2366 -1.7645,-1.0105 -1.9114,-1.4439 l -0.0303,-0.087 c -0.1483,-0.4366 -0.3127,-0.9139 -0.3127,-1.4877 0,-0.2265 0.0258,-0.47 0.0871,-0.7305 z m 4.8041,-48.3227 h -1.3496 l 0.667,-1.8975 h 0.0145 z m -2.9732,1.7849 h 0.9572 L 76.7429,77.58 h 1.8686 l 0.3977,1.0578 h 1.0225 l -1.808,-4.6099 h -1.0448 z m 5.2415,0 h 1.2603 c 1.4136,0 2.6631,-0.4739 2.6631,-2.3048 0,-1.8278 -1.2495,-2.3051 -2.6631,-2.3051 h -1.2603 z m 0.9238,-3.8823 h 0.5153 c 0.7725,0 1.5197,0.5738 1.5197,1.5775 0,1.0035 -0.7472,1.5812 -1.5197,1.5812 h -0.5153 z m -4.443,9.5488 c -0.4751,-0.1766 -1.0902,-0.4467 -1.0902,-1.0406 0,-0.5533 0.5057,-0.8337 1.0114,-0.8337 0.5247,0 0.8512,0.36 0.8512,0.8737 0,0.4272 -0.3861,0.8609 -0.7724,1.0006 z m 0.9513,0.417 c 0.7631,-0.3104 1.1492,-1.0341 1.1492,-1.6543 0,-1.1608 -1.101,-1.6648 -2.3176,-1.6648 -1.2592,0 -2.1992,0.5839 -2.1992,1.8213 0,0.7242 0.4556,1.2977 1.1475,1.6046 v 0.0199 c -0.8308,0.407 -1.2685,0.9439 -1.2685,1.7147 0,1.4071 1.0916,1.9907 2.4386,1.9907 1.3669,0 2.3769,-0.6137 2.3769,-2.0111 0,-0.7935 -0.4156,-1.3873 -1.3269,-1.8145 V 84.708 Z m -1.2186,0.684 c 0.5748,0.1868 1.1588,0.5133 1.1588,1.1973 0,0.5732 -0.436,0.9204 -0.9902,0.9204 -0.555,0 -1.0508,-0.407 -1.0508,-0.9807 0,-0.5834 0.3878,-0.9003 0.8822,-1.137 z m 7.6243,-3.7556 c -0.4751,-0.167 -0.9513,-0.2475 -1.457,-0.2475 -2.2379,0 -2.8428,2.0619 -2.8428,3.9328 0,1.624 0.4266,3.2184 2.3485,3.2184 1.565,0 2.2977,-0.9904 2.2977,-2.4845 0,-1.281 -0.7118,-2.1116 -2.0205,-2.1116 -0.5848,0 -1.0094,0.2169 -1.338,0.6943 l -0.0192,-0.0205 c 0.0402,-1.0306 0.4458,-2.141 1.6455,-2.141 0.4634,0 0.8402,0.1199 1.207,0.277 z m -1.9817,3.3352 c 0.663,0 0.9417,0.627 0.9417,1.2974 0,0.6171 -0.2673,1.2407 -0.9113,1.2407 -0.684,0 -0.9607,-0.5737 -0.9607,-1.2271 0,-0.6942 0.2574,-1.311 0.9303,-1.311 z m -66.3704,-6.107 h 2.5067 V 78.211 h -1.658 v -1.1875 h 1.5066 v -0.6673 h -1.5066 v -1.0406 h 1.6467 v -0.6635 h -2.4954 z m 5.7133,-4.1496 c -0.309,-0.1029 -0.6486,-0.1499 -1.0109,-0.1499 -0.7452,0 -1.4774,0.3435 -1.4774,1.2874 0,1.4012 1.8527,1.0642 1.8527,1.8712 0,0.3804 -0.43,0.5468 -0.7517,0.5468 -0.332,0 -0.665,-0.1029 -0.9547,-0.2633 l -0.0805,0.7639 c 0.4184,0.1032 0.6244,0.1633 1.0851,0.1633 0.8532,0 1.5854,-0.3501 1.5854,-1.2776 0,-1.4173 -1.8527,-1.1069 -1.8527,-1.8408 0,-0.4604 0.3747,-0.5874 0.6664,-0.5874 0.2962,0 0.5944,0.0669 0.8597,0.1834 z m 1.7841,4.1496 h 0.8467 v -3.5623 h 1.2107 v -0.6635 h -3.2695 v 0.6635 h 1.2121 z m 2.5211,0 h 0.8481 v -0.8475 h -0.8481 z m -10.3839,4.5392 0.7328,0.9541 1.2345,-1.0074 v 5.6401 h 1.4632 V 81.703 h -1.2957 z m 5.8119,5.4501 c 0.5023,0.1766 1.0026,0.26 1.5372,0.26 2.3633,0 3.0011,-2.1745 3.0011,-4.1525 0,-1.7144 -0.451,-3.3985 -2.4781,-3.3985 -1.6531,0 -2.4256,1.0469 -2.4256,2.6246 0,1.351 0.7518,2.2281 2.1325,2.2281 0.6169,0 1.0661,-0.2203 1.4106,-0.7339 l 0.0209,0.0238 c -0.0402,1.0874 -0.4702,2.2578 -1.7356,2.2578 -0.4907,0 -0.8884,-0.1236 -1.2748,-0.2934 z m 2.0911,-3.5254 c -0.7004,0 -0.9935,-0.6605 -0.9935,-1.3708 0,-0.6475 0.2818,-1.3077 0.9626,-1.3077 0.7215,0 1.0146,0.6072 1.0146,1.2974 0,0.7339 -0.2719,1.3811 -0.9837,1.3811 z m 26.3379,31.9807 c 0,-0.0127 0,-0.0249 0,-0.0374 -0.1117,0 -0.2237,0 -0.3354,0 0,-0.0124 0,-0.0249 0,-0.0371 -0.0867,0 -0.1862,0 -0.2854,0 0,-0.0128 0,-0.025 0,-0.0499 -0.0746,0 -0.1616,0 -0.2483,0 0,-0.0125 0,-0.0249 0,-0.0371 -0.1491,0 -0.298,0 -0.4595,0 0,-0.0122 0,-0.025 0,-0.0374 -0.0992,0 -0.2112,0 -0.3229,0 0,-0.0122 0,-0.0247 0,-0.0494 -0.0621,0 -0.1363,0 -0.2109,0 0,-0.0127 0,-0.0249 0,-0.0371 -0.0621,0 -0.1366,0 -0.2112,0 0,-0.0128 0,-0.025 0,-0.0374 -0.0496,0 -0.0992,0 -0.1613,0 0,-0.0125 0,-0.025 0,-0.0496 -0.0745,0 -0.1615,0 -0.2483,0 0,-0.0125 0,-0.025 0,-0.0374 -0.0745,0 -0.1616,0 -0.2483,0 0,-0.0125 0,-0.025 0,-0.0372 -0.0746,0 -0.1616,0 -0.2483,0 0,-0.0127 0,-0.0249 0,-0.0499 -0.0374,0 -0.0746,0 -0.1242,0 0,-0.0124 0,-0.0246 0,-0.0371 -0.087,0 -0.1862,0 -0.2854,0 0,-0.0125 0,-0.0247 0,-0.0374 -0.025,0 -0.0499,0 -0.087,0 0,-0.0122 0,-0.0244 0,-0.0496 -0.0372,0 -0.0746,0 -0.1242,0 0,-0.0125 0,-0.0247 0,-0.0372 -0.0624,0 -0.1366,0 -0.2112,0 0,-0.0124 0,-0.0249 0,-0.0371 -0.0496,0 -0.0992,0 -0.1613,0 0,-0.0125 0,-0.0249 0,-0.0499 -0.0371,0 -0.0745,0 -0.1241,0 0,-0.0122 0,-0.0249 0,-0.0371 -0.025,0 -0.0496,0 -0.0868,0 0,-0.0122 0,-0.025 0,-0.0374 -0.0499,0 -0.0995,0 -0.1615,0 0,-0.0122 0,-0.0247 0,-0.0494 -0.025,0 -0.0497,0 -0.0871,0 0,-0.0127 0,-0.0249 0,-0.0371 -0.0246,0 -0.0496,0 -0.0742,0 0,-0.0127 0,-0.0252 0,-0.0377 -0.0496,0 -0.112,0 -0.1741,0 0,-0.0122 0,-0.0247 0,-0.0496 -0.0371,0 -0.0743,0 -0.1239,0 0,-0.0122 0,-0.0247 0,-0.0371 -0.0374,0 -0.0748,0 -0.1244,0 0,-0.0122 0,-0.025 0,-0.0372 -0.0247,0 -0.0496,0 -0.0743,0 0,-0.0124 0,-0.0249 0,-0.0499 -0.0374,0 -0.0745,0 -0.1241,0 0,-0.0124 0,-0.0246 0,-0.0371 -0.0125,0 -0.025,0 -0.0496,0 0,-0.0122 0,-0.0247 0,-0.0374 -0.0374,0 -0.0746,0 -0.1245,0 0,-0.0122 0,-0.0244 0,-0.0493 -0.0246,0 -0.0496,0 -0.0742,0 0,-0.0128 0,-0.025 0,-0.0374 -0.025,0 -0.0496,0 -0.0871,0 0,-0.0122 0,-0.025 0,-0.0372 -0.0246,0 -0.0496,0 -0.0867,0 0,-0.0125 0,-0.0249 0,-0.0499 -0.0249,0 -0.0499,0 -0.0746,0 0,-0.0122 0,-0.0249 0,-0.0371 -0.0249,0 -0.0498,0 -0.087,0 0,-0.0125 0,-0.025 0,-0.0374 -0.0246,0 -0.0496,0 -0.0867,0 0,-0.0122 0,-0.0247 0,-0.0493 -0.0125,0 -0.025,0 -0.0374,0 0,-0.0128 0,-0.025 0,-0.0372 -0.0247,0 -0.0496,0 -0.0871,0 0,-0.0127 0,-0.0249 0,-0.0374 -0.0246,0 -0.0496,0 -0.0742,0 0,-0.0125 0,-0.0249 0,-0.0499 -0.0125,0 -0.025,0 -0.0496,0 0,-0.0122 0,-0.0246 0,-0.0371 -0.025,0 -0.0499,0 -0.0746,0 0,-0.0122 0,-0.025 0,-0.0372 -0.0249,0 -0.0496,0 -0.087,0 0,-0.0124 0,-0.0249 0,-0.0498 -0.025,0 -0.0496,0 -0.087,0 0,-0.0122 0,-0.0247 0,-0.0372 -0.0247,0 -0.0496,0 -0.0743,0 0,-0.0125 0,-0.0246 0,-0.0374 -0.0249,0 -0.0496,0 -0.087,0 0,-0.0122 0,-0.0244 0,-0.0493 -0.0247,0 -0.0496,0 -0.087,0 0,-0.0125 0,-0.025 0,-0.0374 -0.0122,0 -0.0247,0 -0.0372,0 0,-0.0125 0,-0.025 0,-0.0372 -0.0249,0 -0.0496,0 -0.0867,0 0,-0.0124 0,-0.0249 0,-0.0499 -0.025,0 -0.0499,0 -0.0746,0 0,-0.0121 0,-0.0246 0,-0.0371 -0.0249,0 -0.0496,0 -0.087,0 0,-0.0122 0,-0.0249 0,-0.0371 -0.0371,0 -0.0743,0 -0.1242,0 0,-0.0125 0,-0.025 0,-0.0496 -0.0124,0 -0.0246,0 -0.0371,0 0,-0.0128 0,-0.025 0,-0.0372 -0.0249,0 -0.0496,0 -0.087,0 0,-0.0127 0,-0.0252 0,-0.0377 -0.0125,0 -0.0247,0 -0.0371,0 0,-0.0122 0,-0.0243 0,-0.0496 -0.025,0 -0.0497,0 -0.0871,0 0,-0.0122 0,-0.0246 0,-0.0371 -0.0246,0 -0.0496,0 -0.0867,0 0,-0.0122 0,-0.025 0,-0.0371 -0.025,0 -0.0499,0 -0.0746,0 0,-0.0125 0,-0.025 0,-0.0499 -0.0249,0 -0.0496,0 -0.087,0 0,-0.0122 0,-0.0247 0,-0.0372 -0.0246,0 -0.0496,0 -0.087,0 0,-0.0124 0,-0.0246 0,-0.0374 -0.0247,0 -0.0496,0 -0.0743,0 0,-0.0122 0,-0.0244 0,-0.0496 -0.0249,0 -0.0496,0 -0.087,0 0,-0.0125 0,-0.0247 0,-0.0368 -0.0125,0 -0.0247,0 -0.0371,0 0,-0.0128 0,-0.0253 0,-0.0375 -0.025,0 -0.0496,0 -0.0871,0 0,-0.0124 0,-0.0249 0,-0.0498 -0.0121,0 -0.0246,0 -0.0371,0 0,-0.0122 0,-0.0247 0,-0.0372 -0.0249,0 -0.0496,0 -0.0867,0 0,-0.0125 0,-0.0249 0,-0.0371 -0.0128,0 -0.025,0 -0.0374,0 0,-0.0125 0,-0.025 0,-0.0496 -0.025,0 -0.0497,0 -0.0871,0 0,-0.0128 0,-0.025 0,-0.0372 -0.0246,0 -0.0496,0 -0.0867,0 0,-0.0127 0,-0.0249 0,-0.0377 -0.0125,0 -0.025,0 -0.0374,0 0,-0.0121 0,-0.0243 0,-0.0496 -0.0247,0 -0.0496,0 -0.0868,0 0,-0.0122 0,-0.0246 0,-0.0371 -0.0124,0 -0.0249,0 -0.0374,0 0,-0.0122 0,-0.0249 0,-0.0371 -0.0246,0 -0.0496,0 -0.0867,0 0,-0.0125 0,-0.025 0,-0.0499 -0.0125,0 -0.025,0 -0.0374,0 0,-0.0122 0,-0.0247 0,-0.0372 -0.0247,0 -0.0496,0 -0.0868,0 0,-0.0124 0,-0.0246 0,-0.0371 -0.0125,0 -0.0249,0 -0.0371,0 0,-0.0125 0,-0.0246 0,-0.0496 -0.0128,0 -0.025,0 -0.0374,0 0,-0.0125 0,-0.0249 0,-0.0374 -0.0125,0 -0.025,0 -0.0496,0 0,-0.0125 0,-0.025 0,-0.0371 -0.0125,0 -0.025,0 -0.0375,0 0,-0.0125 0,-0.0247 0,-0.0499 -0.0121,0 -0.0246,0 -0.0371,0 0,-0.0122 0,-0.0244 0,-0.0372 -0.0125,0 -0.0249,0 -0.0496,0 0,-0.0122 0,-0.0246 0,-0.0371 -0.0125,0 -0.0249,0 -0.0374,0 0,-0.0125 0,-0.0249 0,-0.0496 -0.0122,0 -0.0247,0 -0.0371,0 0,-0.0125 0,-0.025 0,-0.0371 -0.0125,0 -0.0247,0 -0.0497,0 0,-0.0128 0,-0.025 0,-0.0375 -0.0124,0 -0.0249,0 -0.0371,0 0,-0.0124 0,-0.0249 0,-0.0499 -0.0127,0 -0.0249,0 -0.0374,0 0,-0.0121 0,-0.0246 0,-0.0371 -0.025,0 -0.0496,0 -0.087,0 0,-0.0122 0,-0.0249 0,-0.0371 -0.0122,0 -0.0247,0 -0.0372,0 0,-0.0125 0,-0.025 0,-0.0496 -0.0124,0 -0.0249,0 -0.0496,0 0,-0.0125 0,-0.025 0,-0.0374 -0.0124,0 -0.0249,0 -0.0371,0 0,-0.0125 0,-0.0247 0,-0.0372 -0.0125,0 -0.0249,0 -0.0371,0 0,-0.0124 0,-0.0246 0,-0.0496 -0.0128,0 -0.025,0 -0.0499,0 0,-0.0125 0,-0.0249 0,-0.0371 -0.025,0 -0.0496,0 -0.0746,0 0,-0.0128 0,-0.0252 0,-0.0374 -0.0125,0 -0.0249,0 -0.0496,0 0,-0.025 0,-0.0499 0,-0.0871 -0.0125,0 -0.0249,0 -0.0374,0 0,-0.0121 0,-0.0249 0,-0.0371 -0.0247,0 -0.0496,0 -0.0867,0 0,-0.0125 0,-0.0249 0,-0.0496 -0.0125,0 -0.025,0 -0.0372,0 0,-0.0125 0,-0.0249 0,-0.0371 -0.0124,0 -0.0249,0 -0.0374,0 0,-0.0128 0,-0.025 0,-0.0377 -0.0125,0 -0.0249,0 -0.0496,0 0,-0.0122 0,-0.0244 0,-0.0496 -0.0125,0 -0.0249,0 -0.0374,0 0,-0.0122 0,-0.0247 0,-0.0372 -0.0122,0 -0.0247,0 -0.0372,0 0,-0.0122 0,-0.0249 0,-0.0371 -0.0124,0 -0.0249,0 -0.0496,0 0,-0.0122 0,-0.025 0,-0.0499 -0.0124,0 -0.0249,0 -0.0371,0 0,-0.0122 0,-0.0244 0,-0.0371 -0.0125,0 -0.0249,0 -0.0374,0 0,-0.0125 0,-0.0247 0,-0.0372 -0.0125,0 -0.0247,0 -0.0496,0 0,-0.0124 0,-0.0246 0,-0.0496 -0.0125,0 -0.025,0 -0.0374,0 0,-0.0124 0,-0.0249 0,-0.0371 -0.0122,0 -0.0247,0 -0.0372,0 0,-0.0125 0,-0.0249 0,-0.0374 -0.0124,0 -0.0249,0 -0.0496,0 0,-0.0125 0,-0.025 0,-0.0499 -0.0124,0 -0.0249,0 -0.0371,0 0,-0.0122 0,-0.0244 0,-0.0371 -0.0125,0 -0.025,0 -0.0374,0 0,-0.0125 0,-0.025 0,-0.0372 -0.0125,0 -0.0247,0 -0.0496,0 0,-0.0122 0,-0.0246 0,-0.0496 -0.0125,0 -0.025,0 -0.0372,0 0,-0.0249 0,-0.0499 0,-0.0745 -0.0124,0 -0.0249,0 -0.0374,0 0,-0.0125 0,-0.025 0,-0.0496 -0.0125,0 -0.0246,0 -0.0496,0 0,-0.0125 0,-0.025 0,-0.0372 -0.0125,0 -0.0246,0 -0.0374,0 0,-0.0124 0,-0.0252 0,-0.0374 -0.0122,0 -0.0247,0 -0.0371,0 0,-0.0249 0,-0.0496 0,-0.087 -0.025,0 -0.0496,0 -0.0868,0 0,-0.0247 0,-0.0496 0,-0.0868 -0.0125,0 -0.0249,0 -0.0374,0 0,-0.0124 0,-0.0249 0,-0.0374 -0.0125,0 -0.0247,0 -0.0496,0 0,-0.0124 0,-0.0246 0,-0.0371 -0.0125,0 -0.0247,0 -0.0371,0 0,-0.0125 0,-0.025 0,-0.0499 -0.0125,0 -0.025,0 -0.0375,0 0,-0.0122 0,-0.0244 0,-0.0371 -0.0121,0 -0.0249,0 -0.0496,0 0,-0.0247 0,-0.0496 0,-0.0868 -0.0124,0 -0.0249,0 -0.0374,0 0,-0.0124 0,-0.0249 0,-0.0371 -0.0122,0 -0.0246,0 -0.0371,0 0,-0.0128 0,-0.025 0,-0.0374 -0.0125,0 -0.0247,0 -0.0496,0 0,-0.0125 0,-0.0247 0,-0.0496 -0.0125,0 -0.025,0 -0.0372,0 0,-0.0125 0,-0.0247 0,-0.0374 -0.0124,0 -0.0249,0 -0.0374,0 0,-0.0372 0,-0.0743 0,-0.1242 -0.0122,0 -0.0246,0 -0.0496,0 0,-0.0125 0,-0.0247 0,-0.0371 -0.0124,0 -0.0246,0 -0.0374,0 0,-0.0247 0,-0.0496 0,-0.0868 -0.0122,0 -0.0249,0 -0.0371,0 0,-0.0125 0,-0.0249 0,-0.0374 -0.0125,0 -0.025,0 -0.0496,0 0,-0.0249 0,-0.0496 0,-0.087 -0.0125,0 -0.025,0 -0.0372,0 0,-0.0122 0,-0.025 0,-0.0372 -0.0124,0 -0.0249,0 -0.0374,0 0,-0.0121 0,-0.0249 0,-0.0496 -0.0125,0 -0.0246,0 -0.0496,0 0,-0.0124 0,-0.0249 0,-0.0374 -0.0125,0 -0.0249,0 -0.0371,0 0,-0.0246 0,-0.0496 0,-0.0867 -0.0125,0 -0.025,0 -0.0374,0 0,-0.0125 0,-0.025 0,-0.0374 -0.0122,0 -0.0247,0 -0.0494,0 0,-0.0247 0,-0.0494 0,-0.0868 -0.0127,0 -0.0249,0 -0.0374,0 0,-0.0124 0,-0.0246 0,-0.0374 -0.0125,0 -0.0249,0 -0.0371,0 0,-0.0247 0,-0.0496 0,-0.0867 -0.0128,0 -0.025,0 -0.0499,0 0,-0.025 0,-0.0496 0,-0.0746 -0.0125,0 -0.025,0 -0.0371,0 0,-0.0249 0,-0.0496 0,-0.087 -0.0125,0 -0.025,0 -0.0375,0 0,-0.0122 0,-0.0247 0,-0.0371 -0.0124,0 -0.0246,0 -0.0496,0 0,-0.025 0,-0.0496 0,-0.0868 -0.0124,0 -0.0246,0 -0.0371,0 0,-0.0249 0,-0.0499 0,-0.087 -0.0125,0 -0.0249,0 -0.0374,0 0,-0.0247 0,-0.0496 0,-0.0746 -0.0122,0 -0.0247,0 -0.0496,0 0,-0.0121 0,-0.0249 0,-0.0496 -0.0125,0 -0.025,0 -0.0372,0 0,-0.0249 0,-0.0496 0,-0.0745 -0.0124,0 -0.0249,0 -0.0374,0 0,-0.0247 0,-0.0496 0,-0.087 -0.0124,0 -0.0246,0 -0.0496,0 0,-0.0122 0,-0.0247 0,-0.0369 -0.0125,0 -0.0246,0 -0.0371,0 0,-0.0252 0,-0.0499 0,-0.0873 -0.0125,0 -0.025,0 -0.0374,0 0,-0.0247 0,-0.0496 0,-0.0867 -0.0122,0 -0.0247,0 -0.0496,0 0,-0.025 0,-0.0499 0,-0.0743 -0.0125,0 -0.0247,0 -0.0375,0 0,-0.0128 0,-0.0249 0,-0.0499 -0.0121,0 -0.0246,0 -0.0371,0 0,-0.0247 0,-0.0496 0,-0.0745 -0.0125,0 -0.0246,0 -0.0496,0 0,-0.025 0,-0.0496 0,-0.0871 -0.0125,0 -0.0249,0 -0.0371,0 0,-0.0246 0,-0.0496 0,-0.0867 -0.0125,0 -0.025,0 -0.0374,0 0,-0.025 0,-0.0496 0,-0.0746 -0.0122,0 -0.0247,0 -0.0497,0 0,-0.0249 0,-0.0496 0,-0.087 -0.0124,0 -0.0246,0 -0.0371,0 0,-0.0246 0,-0.0493 0,-0.0867 -0.0125,0 -0.0249,0 -0.0374,0 0,-0.025 0,-0.0499 0,-0.0743 -0.0122,0 -0.0249,0 -0.0496,0 0,-0.0127 0,-0.0252 0,-0.0499 -0.0125,0 -0.025,0 -0.0371,0 0,-0.0249 0,-0.0496 0,-0.0745 -0.0125,0 -0.025,0 -0.0375,0 0,-0.025 0,-0.0494 0,-0.0868 -0.0124,0 -0.0246,0 -0.0496,0 0,-0.0249 0,-0.0499 0,-0.087 -0.0124,0 -0.0246,0 -0.0371,0 0,-0.0249 0,-0.0499 0,-0.0743 -0.0125,0 -0.0249,0 -0.0374,0 0,-0.0374 0,-0.0745 0,-0.1244 -0.0122,0 -0.0247,0 -0.0496,0 0,-0.0125 0,-0.0249 0,-0.0496 -0.0125,0 -0.0247,0 -0.0372,0 0,-0.0371 0,-0.0743 0,-0.1242 -0.0124,0 -0.0249,0 -0.0374,0 0,-0.0246 0,-0.0496 0,-0.0745 -0.0122,0 -0.0246,0 -0.0496,0 0,-0.025 0,-0.0496 0,-0.0868 -0.0122,0 -0.0249,0 -0.0371,0 0,-0.0374 0,-0.0745 0,-0.1241 -0.0125,0 -0.025,0 -0.0374,0 0,-0.025 0,-0.0496 0,-0.087 -0.0125,0 -0.0247,0 -0.0496,0 0,-0.0247 0,-0.0496 0,-0.0746 -0.0125,0 -0.0247,0 -0.0372,0 0,-0.0125 0,-0.0247 0,-0.0496 -0.0124,0 -0.0249,0 -0.0374,0 0,-0.0371 0,-0.0743 0,-0.1242 -0.0122,0 -0.0247,0 -0.0496,0 0,-0.0374 0,-0.0745 0,-0.1238 -0.0125,0 -0.0247,0 -0.0371,0 0,-0.025 0,-0.0499 0,-0.0749 -0.0125,0 -0.025,0 -0.0372,0 0,-0.0371 0,-0.0745 0,-0.1241 -0.0127,0 -0.0249,0 -0.0499,0 0,-0.0247 0,-0.0493 0,-0.087 -0.0124,0 -0.0249,0 -0.0371,0 0,-0.0244 0,-0.0494 0,-0.0868 -0.0125,0 -0.0249,0 -0.0374,0 0,-0.0371 0,-0.0743 0,-0.1241 -0.0122,0 -0.0247,0 -0.0496,0 0,-0.0496 0,-0.0995 0,-0.1616 -0.0125,0 -0.0247,0 -0.0371,0 0,-0.0247 0,-0.0496 0,-0.0868 -0.0125,0 -0.025,0 -0.0375,0 0,-0.0371 0,-0.0742 0,-0.1241 -0.0122,0 -0.0246,0 -0.0496,0 0,-0.0247 0,-0.0496 0,-0.0746 -0.0122,0 -0.0249,0 -0.0371,0 0,-0.0493 0,-0.1116 0,-0.1737 -0.0122,0 -0.0249,0 -0.0374,0 0,-0.0496 0,-0.0995 0,-0.1613 -0.0122,0 -0.0247,0 -0.0496,0 0,-0.0372 0,-0.0746 0,-0.1242 -0.0125,0 -0.0247,0 -0.0372,0 0,-0.0374 0,-0.0745 0,-0.1241 -0.0124,0 -0.0249,0 -0.0374,0 0,-0.0496 0,-0.0995 0,-0.1613 -0.0122,0 -0.0246,0 -0.0496,0 0,-0.0499 0,-0.1117 0,-0.1738 -0.0125,0 -0.0246,0 -0.0371,0 0,-0.0624 0,-0.1244 0,-0.1987 -0.0125,0 -0.025,0 -0.0372,0 0,-0.0624 0,-0.1366 0,-0.2112 -0.0124,0 -0.0249,0 -0.0498,0 0,-0.087 0,-0.1862 0,-0.2854 -0.0122,0 -0.0247,0 -0.0372,0 0,-0.0499 0,-0.112 0,-0.1738 -0.0124,0 -0.0249,0 -0.0374,0 0,-0.0621 0,-0.1241 0,-0.1987 -0.0122,0 -0.0247,0 -0.0496,0 0,-0.1366 0,-0.2733 0,-0.4221 -0.0125,0 -0.0247,0 -0.0371,0 0,-0.0499 0,-0.0995 0,-0.1616 0.0124,0 0.0246,0 0.0371,0 0,-0.0249 0,-0.0498 0,-0.087 -0.0125,0 -0.0247,0 -0.0371,0 0,-0.0992 0,-0.2109 0,-0.3226 -0.0125,0 -0.025,0 -0.0374,0 0,-0.1615 0,-0.3228 0,-0.4966 -0.0122,0 -0.0247,0 -0.0497,0 0,-0.3478 0,-0.6953 0,-1.0431 -0.0121,0 -0.0246,0 -0.0371,0 0,-0.0618 0,-0.1239 0,-0.1985 0.0125,0 0.025,0 0.0371,0 0,-0.1366 0,-0.2729 0,-0.4223 -0.0121,0 -0.0246,0 -0.0371,0 0,-0.0247 0,-0.0496 0,-0.0743 0.0125,0 0.025,0 0.0371,0 0,-0.112 0,-0.2234 0,-0.3351 0.0125,0 0.025,0 0.0497,0 0,-0.0748 0,-0.1615 0,-0.2485 0.0124,0 0.0249,0 0.0374,0 0,-0.0618 0,-0.1364 0,-0.2112 0.0124,0 0.0246,0 0.0371,0 0,-0.0621 0,-0.1239 0,-0.1985 0.0125,0 0.0249,0 0.0496,0 0,-0.0745 0,-0.1612 0,-0.2483 0.0125,0 0.025,0 0.0374,0 0,-0.0496 0,-0.1117 0,-0.174 0.0125,0 0.025,0 0.0372,0 0,-0.0244 0,-0.0493 0,-0.0743 0.0124,0 0.0249,0 0.0498,0 0,-0.0374 0,-0.0743 0,-0.1241 0.0122,0 0.0247,0 0.0372,0 0,-0.0375 0,-0.0746 0,-0.1242 0.0125,0 0.0246,0 0.0371,0 0,-0.0371 0,-0.0743 0,-0.1242 0.0125,0 0.025,0 0.0496,0 0,-0.0374 0,-0.0745 0,-0.1241 0.0125,0 0.025,0 0.0374,0 0,-0.0371 0,-0.0743 0,-0.1242 0.0125,0 0.0247,0 0.0372,0 0,-0.0249 0,-0.0496 0,-0.0867 0.0124,0 0.0249,0 0.0496,0 0,-0.0371 0,-0.0746 0,-0.1242 0.0125,0 0.0252,0 0.0374,0 0,-0.0249 0,-0.0499 0,-0.0873 0.0122,0 0.0249,0 0.0371,0 0,-0.0244 0,-0.0496 0,-0.0742 0.0125,0 0.025,0 0.0496,0 0,-0.0375 0,-0.0746 0,-0.1242 0.0125,0 0.025,0 0.0375,0 0,-0.0249 0,-0.0496 0,-0.087 0.0124,0 0.0246,0 0.0371,0 0,-0.0122 0,-0.0247 0,-0.0372 0.0125,0 0.0249,0 0.0496,0 0,-0.0371 0,-0.0742 0,-0.1238 0.0125,0 0.0249,0 0.0374,0 0,-0.0253 0,-0.0499 0,-0.0873 0.0122,0 0.0247,0 0.0371,0 0,-0.0247 0,-0.0494 0,-0.0868 0.0125,0 0.025,0 0.0499,0 0,-0.0249 0,-0.0496 0,-0.0745 0.0122,0 0.0247,0 0.0372,0 0,-0.0247 0,-0.0496 0,-0.0868 0.0124,0 0.0246,0 0.0371,0 0,-0.0127 0,-0.0249 0,-0.0371 0.0125,0 0.0249,0 0.0496,0 0,-0.0252 0,-0.0499 0,-0.0873 0.0125,0 0.025,0 0.0374,0 0,-0.0247 0,-0.0496 0,-0.0868 0.0125,0 0.0247,0 0.0372,0 0,-0.0249 0,-0.0498 0,-0.0745 0.0124,0 0.0249,0 0.0496,0 0,-0.0247 0,-0.0496 0,-0.087 0.0124,0 0.0249,0 0.0374,0 0,-0.0247 0,-0.0496 0,-0.0868 0.0122,0 0.0249,0 0.0371,0 0,-0.0246 0,-0.0496 0,-0.0745 0.0125,0 0.025,0 0.0496,0 0,-0.0247 0,-0.0496 0,-0.0868 0.0125,0 0.025,0 0.0374,0 0,-0.0249 0,-0.0498 0,-0.087 0.0125,0 0.0247,0 0.0372,0 0,-0.0125 0,-0.0249 0,-0.0374 0.0124,0 0.0249,0 0.0496,0 0,-0.0244 0,-0.0493 0,-0.0867 0.0125,0 0.0249,0 0.0374,0 0,-0.025 0,-0.0496 0,-0.0743 0.0125,0 0.0247,0 0.0371,0 0,-0.025 0,-0.0499 0,-0.0873 0.0125,0 0.025,0 0.0496,0 0,-0.0247 0,-0.0493 0,-0.0865 0.0125,0 0.025,0 0.0375,0 0,-0.0249 0,-0.0499 0,-0.0748 0.0121,0 0.0246,0 0.0371,0 0,-0.0122 0,-0.0247 0,-0.0496 0.0125,0 0.0247,0 0.0496,0 0,-0.025 0,-0.0499 0,-0.0743 0.0125,0 0.0249,0 0.0374,0 0,-0.0127 0,-0.0252 0,-0.0499 0.0125,0 0.0247,0 0.0371,0 0,-0.0124 0,-0.0246 0,-0.0374 0.0125,0 0.025,0 0.0497,0 0,-0.0244 0,-0.0496 0,-0.0867 0.0124,0 0.0249,0 0.0374,0 0,-0.0125 0,-0.025 0,-0.0372 0.0122,0 0.0246,0 0.0371,0 0,-0.0124 0,-0.0249 0,-0.0371 0.0125,0 0.025,0 0.0496,0 0,-0.0249 0,-0.0499 0,-0.0873 0.0125,0 0.025,0 0.0371,0 0,-0.0247 0,-0.0493 0,-0.0867 0.0128,0 0.025,0 0.0375,0 0,-0.0125 0,-0.025 0,-0.0375 0.0124,0 0.0249,0 0.0496,0 0,-0.0121 0,-0.0246 0,-0.0368 0.0124,0 0.0249,0 0.0374,0 0,-0.0128 0,-0.025 0,-0.0499 0.0125,0 0.0246,0 0.0371,0 0,-0.0249 0,-0.0496 0,-0.0746 0.0125,0 0.025,0 0.0496,0 0,-0.0124 0,-0.0249 0,-0.0496 0.0125,0 0.025,0 0.0374,0 0,-0.0246 0,-0.0496 0,-0.0745 0.0122,0 0.0247,0 0.0372,0 0,-0.0122 0,-0.025 0,-0.0493 0.0125,0 0.0249,0 0.0496,0 0,-0.0128 0,-0.0253 0,-0.0374 0.0125,0 0.0249,0 0.0374,0 0,-0.025 0,-0.0499 0,-0.0871 0.0247,0 0.0496,0 0.0867,0 0,-0.0249 0,-0.0496 0,-0.0745 0.0125,0 0.025,0 0.0375,0 0,-0.0122 0,-0.025 0,-0.0493 0.0121,0 0.0246,0 0.0371,0 0,-0.0128 0,-0.025 0,-0.0375 0.0125,0 0.0249,0 0.0499,0 0,-0.0124 0,-0.0249 0,-0.0374 0.0122,0 0.0246,0 0.0371,0 0,-0.0125 0,-0.0246 0,-0.0496 0.0125,0 0.0247,0 0.0374,0 0,-0.0249 0,-0.0496 0,-0.0743 0.0122,0 0.0247,0 0.0494,0 0,-0.0127 0,-0.0249 0,-0.0498 0.0124,0 0.0249,0 0.0374,0 0,-0.0247 0,-0.0497 0,-0.0746 0.0122,0 0.0246,0 0.0371,0 0,-0.0122 0,-0.0249 0,-0.0496 0.0125,0 0.025,0 0.0496,0 0,-0.0249 0,-0.0496 0,-0.0743 0.0125,0 0.025,0 0.0374,0 0,-0.0127 0,-0.0249 0,-0.0499 0.0122,0 0.0247,0 0.0372,0 0,-0.0121 0,-0.0246 0,-0.0371 0.0124,0 0.0246,0 0.0496,0 0,-0.0125 0,-0.0249 0,-0.0374 0.0122,0 0.0249,0 0.0371,0 0,-0.0122 0,-0.025 0,-0.0493 0.0128,0 0.025,0 0.0374,0 0,-0.0128 0,-0.0253 0,-0.0377 0.0125,0 0.025,0 0.0496,0 0,-0.0244 0,-0.0496 0,-0.0868 0.0125,0 0.025,0 0.0374,0 0,-0.0122 0,-0.0249 0,-0.0371 0.0122,0 0.0247,0 0.0372,0 0,-0.0125 0,-0.025 0,-0.0371 0.0125,0 0.0249,0 0.0496,0 0,-0.0125 0,-0.025 0,-0.0499 0.0125,0 0.0249,0 0.0371,0 0,-0.0247 0,-0.0496 0,-0.0746 0.025,0 0.0499,0 0.087,0 0,-0.0125 0,-0.0249 0,-0.0493 0.0125,0 0.025,0 0.0375,0 0,-0.0128 0,-0.0252 0,-0.0374 0.0124,0 0.0246,0 0.0371,0 0,-0.0125 0,-0.025 0,-0.0372 0.0125,0 0.0249,0 0.0496,0 0,-0.0127 0,-0.0249 0,-0.0498 0.0125,0 0.0249,0 0.0374,0 0,-0.0125 0,-0.0247 0,-0.0372 0.0122,0 0.0247,0 0.0372,0 0,-0.0125 0,-0.0249 0,-0.0371 0.0124,0 0.0246,0 0.0496,0 0,-0.0125 0,-0.025 0,-0.0499 0.0124,0 0.0249,0 0.0371,0 0,-0.0125 0,-0.0247 0,-0.0374 0.0128,0 0.0249,0 0.0374,0 0,-0.0122 0,-0.0244 0,-0.0372 0.0125,0 0.025,0 0.0496,0 0,-0.0124 0,-0.0246 0,-0.0496 0.0125,0 0.025,0 0.0374,0 0,-0.0122 0,-0.0249 0,-0.0371 0.0122,0 0.0247,0 0.0372,0 0,-0.0122 0,-0.0249 0,-0.0374 0.0124,0 0.0249,0 0.0496,0 0,-0.0125 0,-0.0247 0,-0.0496 0.0124,0 0.0249,0 0.0374,0 0,-0.0125 0,-0.0247 0,-0.0372 0.0122,0 0.0247,0 0.0371,0 0,-0.0124 0,-0.0246 0,-0.0374 0.0125,0 0.0247,0 0.0496,0 0,-0.0122 0,-0.0246 0,-0.0496 0.0125,0 0.025,0 0.0372,0 0,-0.0125 0,-0.0249 0,-0.0371 0.0124,0 0.0249,0 0.0374,0 0,-0.0125 0,-0.0247 0,-0.0371 0.0125,0 0.0249,0 0.0496,0 0,-0.0128 0,-0.025 0,-0.0499 0.0125,0 0.0249,0 0.0374,0 0,-0.0122 0,-0.025 0,-0.0372 0.0122,0 0.0247,0 0.0371,0 0,-0.0124 0,-0.0246 0,-0.0374 0.0125,0 0.0247,0 0.0496,0 0,-0.0122 0,-0.0246 0,-0.0493 0.0125,0 0.025,0 0.0372,0 0,-0.0128 0,-0.025 0,-0.0377 0.0125,0 0.0249,0 0.0374,0 0,-0.0122 0,-0.0247 0,-0.0371 0.0125,0 0.0247,0 0.0496,0 0,-0.0125 0,-0.0247 0,-0.0497 0.0125,0 0.025,0 0.0374,0 0,-0.0121 0,-0.0249 0,-0.0371 0.0122,0 0.0247,0 0.0372,0 0,-0.0122 0,-0.0249 0,-0.0371 0.0124,0 0.0249,0 0.0496,0 0,-0.0125 0,-0.025 0,-0.0499 0.0124,0 0.0249,0 0.0371,0 0,-0.0125 0,-0.0247 0,-0.0371 0.0249,0 0.0499,0 0.087,0 0,-0.0125 0,-0.0247 0,-0.0375 0.0125,0 0.025,0 0.0372,0 0,-0.0121 0,-0.0249 0,-0.0493 0.0124,0 0.0249,0 0.0374,0 0,-0.0127 0,-0.0252 0,-0.0374 0.0122,0 0.0249,0 0.0499,0 0,-0.0125 0,-0.0249 0,-0.0371 0.0122,0 0.0246,0 0.0371,0 0,-0.0128 0,-0.025 0,-0.0499 0.0122,0 0.0247,0 0.0371,0 0,-0.0122 0,-0.0247 0,-0.0372 0.0247,0 0.0496,0 0.0868,0 0,-0.0124 0,-0.0249 0,-0.0374 0.0124,0 0.0249,0 0.0374,0 0,-0.0122 0,-0.0246 0,-0.0493 0.0125,0 0.0246,0 0.0496,0 0,-0.0128 0,-0.0249 0,-0.0374 0.0247,0 0.0496,0 0.0745,0 0,-0.0125 0,-0.0247 0,-0.0371 0.0122,0 0.025,0 0.0497,0 0,-0.0125 0,-0.025 0,-0.0499 0.0249,0 0.0496,0 0.0745,0 0,-0.0122 0,-0.025 0,-0.0372 0.0125,0 0.0247,0 0.0496,0 0,-0.0122 0,-0.0249 0,-0.0374 0.025,0 0.0496,0 0.0746,0 0,-0.0122 0,-0.0247 0,-0.0496 0.0121,0 0.0246,0 0.0496,0 0,-0.0125 0,-0.0247 0,-0.0371 0.0246,0 0.0496,0 0.0745,0 0,-0.0125 0,-0.025 0,-0.0374 0.0125,0 0.0247,0 0.0496,0 0,-0.0122 0,-0.0247 0,-0.0494 0.025,0 0.0496,0 0.0746,0 0,-0.0127 0,-0.0249 0,-0.0374 0.0246,0 0.0496,0 0.0867,0 0,-0.0125 0,-0.0249 0,-0.0371 0.0125,0 0.025,0 0.0374,0 0,-0.0128 0,-0.025 0,-0.0499 0.025,0 0.0496,0 0.0868,0 0,-0.0125 0,-0.025 0,-0.0371 0.0124,0 0.0249,0 0.0374,0 0,-0.0122 0,-0.025 0,-0.0375 0.0247,0 0.0496,0 0.0867,0 0,-0.0122 0,-0.0246 0,-0.0493 0.025,0 0.0499,0 0.0871,0 0,-0.0127 0,-0.0249 0,-0.0374 0.0124,0 0.0246,0 0.0374,0 0,-0.0125 0,-0.0249 0,-0.0374 0.0246,0 0.0496,0 0.0867,0 0,-0.0122 0,-0.0247 0,-0.0493 0.025,0 0.0496,0 0.0746,0 0,-0.0125 0,-0.0253 0,-0.0375 0.0124,0 0.0246,0 0.0496,0 0,-0.0121 0,-0.0249 0,-0.0371 0.0246,0 0.0496,0 0.0745,0 0,-0.0127 0,-0.0249 0,-0.0496 0.0247,0 0.0496,0 0.0868,0 0,-0.0128 0,-0.0249 0,-0.0374 0.0124,0 0.0249,0 0.0371,0 0,-0.0125 0,-0.0247 0,-0.0374 0.0249,0 0.0499,0 0.087,0 0,-0.0122 0,-0.0244 0,-0.0496 0.025,0 0.0496,0 0.087,0 0,-0.0125 0,-0.0247 0,-0.0372 0.0125,0 0.0247,0 0.0372,0 0,-0.0124 0,-0.0249 0,-0.0371 0.0249,0 0.0496,0 0.087,0 0,-0.0125 0,-0.025 0,-0.0499 0.0125,0 0.0249,0 0.0371,0 0,-0.0122 0,-0.0247 0,-0.0371 0.0374,0 0.0746,0 0.1242,0 0,-0.0125 0,-0.0247 0,-0.0374 0.0249,0 0.0496,0 0.087,0 0,-0.0122 0,-0.0247 0,-0.0494 0.0247,0 0.0496,0 0.0743,0 0,-0.0127 0,-0.0249 0,-0.0374 0.0249,0 0.0499,0 0.087,0 0,-0.0125 0,-0.0247 0,-0.0371 0.0374,0 0.0746,0 0.1242,0 0,-0.0125 0,-0.025 0,-0.0499 0.0249,0 0.0496,0 0.087,0 0,-0.0122 0,-0.0247 0,-0.0371 0.0246,0 0.0496,0 0.0743,0 0,-0.0122 0,-0.025 0,-0.0372 0.0374,0 0.0745,0 0.1244,0 0,-0.0125 0,-0.0249 0,-0.0499 0.0371,0 0.0743,0 0.1239,0 0,-0.0124 0,-0.0246 0,-0.0371 0.0249,0 0.0499,0 0.087,0 0,-0.0125 0,-0.0247 0,-0.0374 0.0249,0 0.0496,0 0.087,0 0,-0.0122 0,-0.0244 0,-0.0493 0.0247,0 0.0496,0 0.0746,0 0,-0.0125 0,-0.025 0,-0.0375 0.0246,0 0.0496,0 0.0867,0 0,-0.0124 0,-0.0249 0,-0.0371 0.025,0 0.0496,0 0.087,0 0,-0.0125 0,-0.0249 0,-0.0499 0.0247,0 0.0496,0 0.0746,0 0,-0.0122 0,-0.0246 0,-0.0371 0.0246,0 0.0496,0 0.0867,0 0,-0.0122 0,-0.0247 0,-0.0374 0.0372,0 0.0746,0 0.1242,0 0,-0.0122 0,-0.0247 0,-0.0496 0.0374,0 0.0745,0 0.1241,0 0,-0.0125 0,-0.0247 0,-0.0369 0.0375,0 0.0746,0 0.1242,0 0,-0.0127 0,-0.0249 0,-0.0374 0.0371,0 0.0745,0 0.1242,0 0,-0.0125 0,-0.025 0,-0.0499 0.0374,0 0.0745,0 0.1241,0 0,-0.0122 0,-0.0247 0,-0.0371 0.0621,0 0.1366,0 0.2109,0 0,-0.0122 0,-0.025 0,-0.0372 0.0499,0 0.0995,0 0.1616,0 0,-0.0127 0,-0.0249 0,-0.0496 0.0371,0 0.0745,0 0.1241,0 0,-0.0127 0,-0.0249 0,-0.0371 0.0621,0 0.1367,0 0.2112,0 0,-0.0128 0,-0.025 0,-0.0377 0.0247,0 0.0496,0 0.0743,0 0,-0.0122 0,-0.0244 0,-0.0496 0.0496,0 0.1117,0 0.174,0 0,-0.0125 0,-0.0247 0,-0.0369 0.0496,0 0.0992,0 0.1613,0 0,-0.0127 0,-0.0249 0,-0.0374 0.0496,0 0.0995,0 0.1613,0 0,-0.0125 0,-0.0249 0,-0.0499 0.0499,0 0.112,0 0.1738,0 0,-0.0122 0,-0.0246 0,-0.0371 0.0499,0 0.0995,0 0.1616,0 0,-0.0122 0,-0.0247 0,-0.0371 0.0745,0 0.1612,0 0.2483,0 0,-0.0125 0,-0.025 0,-0.0496 0.062,0 0.1366,0 0.2109,0 0,-0.0128 0,-0.025 0,-0.0372 0.0499,0 0.0995,0 0.1615,0 0,-0.0127 0,-0.0252 0,-0.0374 0.0496,0 0.0993,0 0.1613,0 0,-0.0125 0,-0.0247 0,-0.0499 0.0995,0 0.1987,0 0.298,0 0,-0.0122 0,-0.0246 0,-0.0371 0.0745,0 0.1615,0 0.2486,0 0,-0.0122 0,-0.025 0,-0.0372 0.0742,0 0.1612,0 0.248,0 0,-0.0124 0,-0.0249 0,-0.0496 0.087,0 0.1862,0 0.2857,0 0,-0.0124 0,-0.0249 0,-0.0374 0.0621,0 0.1366,0 0.2109,0 0,0.0125 0,0.025 0,0.0374 0.0125,0 0.025,0 0.0374,0 0,-0.0124 0,-0.0249 0,-0.0374 0.0247,0 0.0496,0 0.0868,0 0,0.0125 0,0.025 0,0.0374 0.087,0 0.1862,0 0.2857,0 0,-0.0124 0,-0.0249 0,-0.0374 0.1738,0 0.3475,0 0.5338,0 0,-0.0122 0,-0.0246 0,-0.0374 0.3228,0 0.6579,0 0.9929,0 0,0.0128 0,0.0252 0,0.0374 0.2983,0 0.6086,0 0.919,0 0,0.0125 0,0.025 0,0.0374 0.3104,0 0.6208,0 0.9434,0 0,0.0122 0,0.0247 0,0.0496 0.1491,0 0.2982,0 0.4595,0 0,0.0122 0,0.025 0,0.0372 0.1117,0 0.2234,0 0.3351,0 0,0.0125 0,0.0249 0,0.0371 0.062,0 0.1244,0 0.1987,0 0,0.0125 0,0.0252 0,0.0499 0.062,0 0.1366,0 0.2111,0 0,0.0122 0,0.0247 0,0.0374 0.0372,0 0.0743,0 0.1242,0 0,0.0122 0,0.0244 0,0.0372 0.0496,0 0.0992,0 0.1613,0 0,0.0121 0,0.0246 0,0.0496 0.0496,0 0.112,0 0.1738,0 0,0.0124 0,0.0249 0,0.0371 0.0499,0 0.0995,0 0.1615,0 0,0.0125 0,0.0249 0,0.0371 0.0496,0 0.0992,0 0.1613,0 0,0.0128 0,0.025 0,0.0499 0.0496,0 0.1117,0 0.1738,0 0,0.0125 0,0.0247 0,0.0374 0.0496,0 0.0995,0 0.1616,0 0,0.0122 0,0.0244 0,0.0369 0.0496,0 0.0992,0 0.1613,0 0,0.0125 0,0.0252 0,0.0496 0.0371,0 0.0745,0 0.1241,0 0,0.0127 0,0.0249 0,0.0377 0.0247,0 0.0496,0 0.087,0 0,0.0122 0,0.0244 0,0.0371 0.0372,0 0.0743,0 0.1242,0 0,0.0125 0,0.0247 0,0.0496 0.0371,0 0.0743,0 0.1239,0 0,0.0122 0,0.025 0,0.0372 0.0374,0 0.0748,0 0.1244,0 0,0.0124 0,0.0249 0,0.0371 0.0247,0 0.0496,0 0.0868,0 0,0.0125 0,0.0249 0,0.0499 0.0374,0 0.0745,0 0.1241,0 0,0.0125 0,0.0247 0,0.0374 0.025,0 0.0499,0 0.0746,0 0,0.0122 0,0.0244 0,0.0369 0.0371,0 0.0745,0 0.1241,0 0,0.0124 0,0.0249 0,0.0496 0.025,0 0.0496,0 0.0868,0 0,0.0127 0,0.0252 0,0.0374 0.0249,0 0.0498,0 0.087,0 0,0.0125 0,0.0249 0,0.0371 0.0249,0 0.0496,0 0.0745,0 0,0.0128 0,0.025 0,0.0499 0.0372,0 0.0746,0 0.1242,0 0,0.0122 0,0.0247 0,0.0371 0.0125,0 0.0247,0 0.0496,0 0,0.0125 0,0.025 0,0.0375 0.0371,0 0.0745,0 0.1242,0 0,0.0121 0,0.0249 0,0.0493 0.0249,0 0.0496,0 0.0745,0 0,0.0127 0,0.0249 0,0.0374 0.0249,0 0.0496,0 0.0867,0 0,0.0125 0,0.0247 0,0.0371 0.0375,0 0.0749,0 0.1245,0 0,0.0125 0,0.025 0,0.0499 0.0496,0 0.0992,0 0.1613,0 0,0.0122 0,0.025 0,0.0372 0.0371,0 0.0745,0 0.1241,0 0,0.0124 0,0.0249 0,0.0371 0.0621,0 0.1367,0 0.2109,0 0,0.0125 0,0.0249 0,0.0499 0.025,0 0.0499,0 0.0871,0 0,0.0124 0,0.0246 0,0.0371 0.0246,0 0.0496,0 0.0745,0 0,0.0125 0,0.0247 0,0.0374 0.025,0 0.0496,0 0.087,0 0,0.0125 0,0.0247 0,0.0494 0.0372,0 0.0743,0 0.1239,0 0,0.0127 0,0.0249 0,0.0374 0.0249,0 0.0499,0 0.087,0 0,0.0124 0,0.0249 0,0.0371 0.0247,0 0.0496,0 0.0746,0 0,0.0128 0,0.0249 0,0.0499 0.0246,0 0.0496,0 0.0867,0 0,0.0122 0,0.0247 0,0.0371 0.0125,0 0.025,0 0.0374,0 0,0.0125 0,0.0247 0,0.0372 0.0247,0 0.0496,0 0.0868,0 0,0.0124 0,0.0252 0,0.0496 0.0249,0 0.0499,0 0.087,0 0,0.0127 0,0.0249 0,0.0374 0.0249,0 0.0496,0 0.0746,0 0,0.0125 0,0.0246 0,0.0374 0.0246,0 0.0496,0 0.0867,0 0,0.0125 0,0.0247 0,0.0496 0.0125,0 0.0249,0 0.0374,0 0,0.0122 0,0.025 0,0.0371 0.0247,0 0.0496,0 0.0867,0 0,0.0122 0,0.025 0,0.0375 0.025,0 0.0497,0 0.0871,0 0,0.0121 0,0.0246 0,0.0493 0.0249,0 0.0496,0 0.0745,0 0,0.0125 0,0.0249 0,0.0374 0.0125,0 0.0247,0 0.0496,0 0,0.0125 0,0.0247 0,0.0374 0.025,0 0.0496,0 0.0746,0 0,0.0122 0,0.0247 0,0.0493 0.0122,0 0.0246,0 0.0499,0 0,0.0125 0,0.0253 0,0.0375 0.0243,0 0.0493,0 0.0742,0 0,0.0121 0,0.0246 0,0.0371 0.0125,0 0.0247,0 0.0496,0 0,0.0127 0,0.0249 0,0.0499 0.025,0 0.0497,0 0.0746,0 0,0.0122 0,0.0246 0,0.0371 0.0247,0 0.0496,0 0.0867,0 0,0.0125 0,0.0247 0,0.0374 0.0125,0 0.025,0 0.0375,0 0,0.0122 0,0.0247 0,0.0494 0.0121,0 0.0249,0 0.0496,0 0,0.0124 0,0.0249 0,0.0374 0.0249,0 0.0496,0 0.0745,0 0,0.0124 0,0.0246 0,0.0371 0.0125,0 0.0247,0 0.0496,0 0,0.0128 0,0.0249 0,0.0496 0.0125,0 0.025,0 0.0372,0 0,0.0125 0,0.0252 0,0.0374 0.0249,0 0.0496,0 0.087,0 0,0.0122 0,0.025 0,0.0372 0.0124,0 0.0246,0 0.0374,0 0,0.0124 0,0.0249 0,0.0499 0.0247,0 0.0496,0 0.0867,0 0,0.0124 0,0.0246 0,0.0371 0.0122,0 0.025,0 0.0372,0 0,0.0125 0,0.0246 0,0.0374 0.0124,0 0.0249,0 0.0374,0 0,0.0122 0,0.0247 0,0.0493 0.0125,0 0.0246,0 0.0496,0 0,0.0125 0,0.025 0,0.0374 0.0125,0 0.0247,0 0.0371,0 0,0.0125 0,0.025 0,0.0372 0.025,0 0.0496,0 0.087,0 0,0.0127 0,0.0249 0,0.0499 0.0125,0 0.0247,0 0.0372,0 0,0.0122 0,0.0246 0,0.0371 0.0249,0 0.0499,0 0.087,0 0,0.0122 0,0.0247 0,0.0374 0.0125,0 0.025,0 0.0371,0 0,0.0122 0,0.0244 0,0.0493 0.025,0 0.0496,0 0.0871,0 0,0.0128 0,0.025 0,0.0375 0.0124,0 0.0246,0 0.0371,0 0,0.0124 0,0.0246 0,0.0371 0.0125,0 0.0249,0 0.0374,0 0,0.0125 0,0.0249 0,0.0499 0.0247,0 0.0496,0 0.0868,0 0,0.0249 0,0.0493 0,0.0742 0.0249,0 0.0496,0 0.087,0 0,0.0125 0,0.025 0,0.0497 0.0125,0 0.0246,0 0.0371,0 0,0.0124 0,0.0249 0,0.0371 0.0125,0 0.025,0 0.0374,0 0,0.0127 0,0.0249 0,0.0377 0.0122,0 0.0247,0 0.0496,0 0,0.0122 0,0.0247 0,0.0493 0.0247,0 0.0496,0 0.0743,0 0,0.0128 0,0.025 0,0.0374 0.0128,0 0.0249,0 0.0499,0 0,0.0122 0,0.025 0,0.0372 0.0125,0 0.0247,0 0.0371,0 0,0.0127 0,0.0249 0,0.0499 0.0125,0 0.025,0 0.0374,0 0,0.0124 0,0.0246 0,0.0371 0.0122,0 0.0247,0 0.0497,0 0,0.0122 0,0.0246 0,0.0371 0.0124,0 0.0246,0 0.0371,0 0,0.0125 0,0.025 0,0.0496 0.0125,0 0.0249,0 0.0374,0 0,0.0128 0,0.025 0,0.0374 0.0122,0 0.0247,0 0.0496,0 0,0.0125 0,0.0247 0,0.0372 0.0122,0 0.0247,0 0.0371,0 0,0.0125 0,0.0249 0,0.0496 0.0125,0 0.025,0 0.0372,0 0,0.0125 0,0.0252 0,0.0374 0.0124,0 0.0249,0 0.0499,0 0,0.0122 0,0.0249 0,0.0371 0.0124,0 0.0246,0 0.0371,0 0,0.0125 0,0.025 0,0.0496 0.0125,0 0.0249,0 0.0374,0 0,0.0128 0,0.025 0,0.0372 0.0247,0 0.0496,0 0.0868,0 0,0.0127 0,0.0249 0,0.0374 0.0124,0 0.0249,0 0.0371,0 0,0.0125 0,0.0249 0,0.0499 0.0125,0 0.0249,0 0.0499,0 0,0.0122 0,0.0246 0,0.0371 0.0122,0 0.0249,0 0.0371,0 0,0.0125 0,0.0247 0,0.0372 0.0125,0 0.0247,0 0.0374,0 0,0.0127 0,0.0249 0,0.0498 0.0122,0 0.0247,0 0.0496,0 0,0.0122 0,0.0247 0,0.0372 0.0125,0 0.0247,0 0.0372,0 0,0.0122 0,0.0246 0,0.0374 0.0124,0 0.0249,0 0.0374,0 0,0.0122 0,0.0244 0,0.0493 0.0122,0 0.0247,0 0.0496,0 0,0.0125 0,0.025 0,0.0371 0.0122,0 0.0247,0 0.0371,0 0,0.0128 0,0.025 0,0.0375 0.0125,0 0.025,0 0.0372,0 0,0.0124 0,0.0249 0,0.0499 0.0127,0 0.0249,0 0.0496,0 0,0.0121 0,0.0246 0,0.0371 0.0127,0 0.0249,0 0.0374,0 0,0.0122 0,0.0249 0,0.0371 0.0125,0 0.0249,0 0.0374,0 0,0.0125 0,0.025 0,0.0496 0.0122,0 0.0249,0 0.0496,0 0,0.0128 0,0.025 0,0.0372 0.0125,0 0.0247,0 0.0371,0 0,0.0124 0,0.0249 0,0.0377 0.0125,0 0.025,0 0.0372,0 0,0.0122 0,0.0243 0,0.0493 0.0125,0 0.0249,0 0.0499,0 0,0.0249 0,0.0499 0,0.0745 0.0122,0 0.0246,0 0.0371,0 0,0.0125 0,0.025 0,0.0499 0.0125,0 0.0247,0 0.0371,0 0,0.0122 0,0.0247 0,0.0372 0.0125,0 0.025,0 0.0496,0 0,0.0122 0,0.0246 0,0.0371 0.0128,0 0.025,0 0.0375,0 0,0.0125 0,0.0247 0,0.0496 0.0124,0 0.0249,0 0.0374,0 0,0.0249 0,0.0499 0,0.0746 0.0122,0 0.0246,0 0.0496,0 0,0.0124 0,0.0249 0,0.0498 0.0122,0 0.0246,0 0.0371,0 0,0.0122 0,0.0247 0,0.0372 0.0125,0 0.025,0 0.0372,0 0,0.0122 0,0.0249 0,0.0371 0.0124,0 0.0249,0 0.0498,0 0,0.025 0,0.0496 0,0.087 0.0122,0 0.0247,0 0.0372,0 0,0.0125 0,0.0247 0,0.0375 0.0124,0 0.0246,0 0.0374,0 0,0.0121 0,0.0243 0,0.0493 0.0122,0 0.0247,0 0.0496,0 0,0.0124 0,0.0249 0,0.0374 0.0122,0 0.0247,0 0.0371,0 0,0.0122 0,0.0247 0,0.0371 0.0125,0 0.025,0 0.0372,0 0,0.025 0,0.0499 0,0.0871 0.0124,0 0.0249,0 0.0499,0 0,0.0121 0,0.0246 0,0.0374 0.0121,0 0.0246,0 0.0371,0 0,0.0243 0,0.0493 0,0.0864 0.0125,0 0.0249,0 0.0371,0 0,0.0128 0,0.0253 0,0.0374 0.0125,0 0.025,0 0.0496,0 0,0.0125 0,0.0247 0,0.0496 0.0128,0 0.025,0 0.0374,0 0,0.025 0,0.0497 0,0.0746 0.0125,0 0.025,0 0.0375,0 0,0.0249 0,0.0499 0,0.0867 0.0122,0 0.0246,0 0.0496,0 0,0.0125 0,0.025 0,0.0375 0.0122,0 0.0246,0 0.0371,0 0,0.0124 0,0.0246 0,0.0498 0.0125,0 0.0249,0 0.0371,0 0,0.0122 0,0.0247 0,0.0369 0.0125,0 0.025,0 0.0496,0 0,0.0128 0,0.0252 0,0.0374 0.0125,0 0.025,0 0.0375,0 0,0.0125 0,0.025 0,0.0499 0.0124,0 0.0246,0 0.0374,0 0,0.0247 0,0.0493 0,0.0743 0.0122,0 0.0246,0 0.0496,0 0,0.0124 0,0.0246 0,0.0496 0.0246,0 0.0496,0 0.0743,0 0,0.0127 0,0.0249 0,0.0371 0.0124,0 0.0249,0 0.0498,0 0,0.025 0,0.0499 0,0.0873 0.0122,0 0.0247,0 0.0372,0 0,0.0244 0,0.0493 0,0.0743 0.0124,0 0.0246,0 0.0371,0 0,0.0249 0,0.0496 0,0.0867 0.0125,0 0.025,0 0.0496,0 0,0.025 0,0.0499 0,0.0871 0.0125,0 0.025,0 0.0377,0 0,0.0124 0,0.0249 0,0.0371 0.0122,0 0.0244,0 0.0372,0 0,0.0374 0,0.0745 0,0.1244 0.0121,0 0.0246,0 0.0496,0 0,0.0122 0,0.0247 0,0.0372 0.0121,0 0.0246,0 0.0371,0 0,0.0249 0,0.0496 0,0.0867 0.0125,0 0.0249,0 0.0371,0 0,0.0249 0,0.0499 0,0.0873 0.0125,0 0.025,0 0.0496,0 0,0.0247 0,0.0493 0,0.0743 0.0125,0 0.025,0 0.0374,0 0,0.0249 0,0.0496 0,0.0867 0.0125,0 0.0247,0 0.0372,0 0,0.025 0,0.0499 0,0.087 0.0125,0 0.0249,0 0.0496,0 0,0.025 0,0.0496 0,0.0746 0.0127,0 0.0249,0 0.0374,0 0,0.0371 0,0.0743 0,0.1241 0.0125,0 0.025,0 0.0371,0 0,0.0125 0,0.0247 0,0.0497 0.0125,0 0.025,0 0.0499,0 0,0.0249 0,0.0498 0,0.0745 0.0122,0 0.0247,0 0.0372,0 0,0.0247 0,0.0499 0,0.087 0.0124,0 0.0249,0 0.0371,0 0,0.0372 0,0.0746 0,0.1239 0.0125,0 0.0249,0 0.0496,0 0,0.0125 0,0.0249 0,0.0374 0.0125,0 0.0249,0 0.0374,0 0,0.0496 0,0.112 0,0.1741 0.0125,0 0.0247,0 0.0372,0 0,0.0371 0,0.0742 0,0.1238 0.0124,0 0.0249,0 0.0498,0 0,0.0372 0,0.0746 0,0.1242 0.0122,0 0.0247,0 0.0372,0 0,0.0247 0,0.0496 0,0.0745 0.0125,0 0.0249,0 0.0371,0 0,0.025 0,0.0497 0,0.0868 0.0125,0 0.025,0 0.0499,0 0,0.0499 0,0.0995 0,0.1616 0.0122,0 0.0247,0 0.0371,0 0,0.0371 0,0.0742 0,0.1241 0.0125,0 0.0247,0 0.0372,0 0,0.0374 0,0.0746 0,0.1242 0.0124,0 0.0249,0 0.0496,0 0,0.0371 0,0.0742 0,0.1241 0.0124,0 0.0249,0 0.0374,0 0,0.0372 0,0.0746 0,0.1239 0.0125,0 0.0247,0 0.0371,0 0,0.0499 0,0.112 0,0.1741 0.0125,0 0.025,0 0.0499,0 0,0.0374 0,0.0745 0,0.1241 0.0122,0 0.0247,0 0.0372,0 0,0.0499 0,0.0992 0,0.1616 0.0124,0 0.0246,0 0.0371,0 0,0.0493 0,0.0992 0,0.161 0.0125,0 0.0246,0 0.0496,0 0,0.0499 0,0.112 0,0.174 0.0125,0 0.0249,0 0.0374,0 0,0.0497 0,0.0993 0,0.1613 0.0125,0 0.0247,0 0.0371,0 0,0.0499 0,0.0995 0,0.1616 0.0125,0 0.025,0 0.0496,0 0,0.0496 0,0.1117 0,0.1738 0.0125,0 0.025,0 0.0375,0 0,0.0371 0,0.0745 0,0.1241 0.0122,0 0.0249,0 0.0371,0 0,0.0374 0,0.0746 0,0.1242 0.0125,0 0.0249,0 0.0496,0 0,0.0371 0,0.0743 0,0.1241 0.0125,0 0.025,0 0.0374,0 0,0.0618 0,0.1242 0,0.1985 0.0125,0 0.0247,0 0.0372,0 0,0.0499 0,0.1119 0,0.174 0.0124,0 0.0249,0 0.0496,0 0,0.0621 0,0.1242 0,0.1984 0.0124,0 0.0249,0 0.0374,0 0,0.0499 0,0.112 0,0.1741 0.0125,0 0.0246,0 0.0371,0 0,0.1738 0,0.3475 0,0.534 -0.0125,0 -0.0246,0 -0.0371,0 0,0.0865 0,0.186 0,0.2852 -0.0125,0 -0.025,0 -0.0374,0 0,0.0252 0,0.0496 0,0.0873 0.0124,0 0.0249,0 0.0374,0 0,0.0371 0,0.0743 0,0.1239 -0.0125,0 -0.025,0 -0.0374,0 0,0.0496 0,0.0995 0,0.1613 0.0124,0 0.0249,0 0.0374,0 0,0.0252 0,0.0496 0,0.087 -0.0125,0 -0.025,0 -0.0374,0 0,0.3229 0,0.6579 0,0.9933 -0.0122,0 -0.0247,0 -0.0496,0 0,0.1366 0,0.2729 0,0.4099 -0.0125,0 -0.0247,0 -0.0372,0 0,0.1114 0,0.223 0,0.335 -0.0124,0 -0.0249,0 -0.0374,0 0,0.0746 0,0.1613 0,0.2483 -0.0122,0 -0.0247,0 -0.0496,0 0,0.0868 0,0.1863 0,0.2855 -0.0122,0 -0.0249,0 -0.0371,0 0,0.0496 0,0.1117 0,0.1737 -0.0125,0 -0.025,0 -0.0375,0 0,0.0499 0,0.0995 0,0.1616 -0.0121,0 -0.0246,0 -0.0496,0 0,0.0496 0,0.0995 0,0.1613 -0.0124,0 -0.0246,0 -0.0371,0 0,0.0496 0,0.112 0,0.174 -0.0125,0 -0.0249,0 -0.0374,0 0,0.0494 0,0.099 0,0.1613 -0.0122,0 -0.025,0 -0.0496,0 0,0.0496 0,0.0993 0,0.1616 -0.0125,0 -0.0247,0 -0.0371,0 0,0.0493 0,0.1114 0,0.1738 -0.0125,0 -0.025,0 -0.0372,0 0,0.0371 0,0.0742 0,0.1239 -0.0127,0 -0.0249,0 -0.0499,0 0,0.0371 0,0.0748 0,0.1241 -0.0124,0 -0.0246,0 -0.0371,0 0,0.0374 0,0.0746 0,0.1244 -0.0125,0 -0.025,0 -0.0374,0 0,0.0372 0,0.0743 0,0.1239 -0.0122,0 -0.0247,0 -0.0496,0 0,0.025 0,0.0499 0,0.0749 -0.0125,0 -0.0247,0 -0.0372,0 0,0.0368 0,0.0742 0,0.1238 -0.0124,0 -0.0249,0 -0.0371,0 0,0.0372 0,0.0746 0,0.1245 -0.0125,0 -0.0249,0 -0.0499,0 0,0.0371 0,0.0742 0,0.1238 -0.0122,0 -0.0246,0 -0.0371,0 0,0.025 0,0.0499 0,0.0871 -0.0125,0 -0.025,0 -0.0372,0 0,0.0246 0,0.0496 0,0.0867 -0.0124,0 -0.0249,0 -0.0498,0 0,0.0371 0,0.0746 0,0.1242 -0.0125,0 -0.0247,0 -0.0372,0 0,0.0249 0,0.0496 0,0.0745 -0.0125,0 -0.0249,0 -0.0374,0 0,0.0372 0,0.0746 0,0.1242 -0.0122,0 -0.0247,0 -0.0496,0 0,0.0246 0,0.0496 0,0.0867 -0.0122,0 -0.0247,0 -0.0371,0 0,0.0252 0,0.0499 0,0.0873 -0.0125,0 -0.025,0 -0.0372,0 0,0.0496 0,0.099 0,0.161 -0.0124,0 -0.0249,0 -0.0499,0 0,0.0128 0,0.025 0,0.0374 -0.0121,0 -0.0246,0 -0.0371,0 0,0.0247 0,0.0499 0,0.0871 -0.0125,0 -0.0247,0 -0.0374,0 0,0.0122 0,0.0249 0,0.0371 -0.0122,0 -0.0247,0 -0.0496,0 0,0.025 0,0.0496 0,0.087 -0.0125,0 -0.0247,0 -0.0372,0 0,0.0247 0,0.0496 0,0.0868 -0.0124,0 -0.0249,0 -0.0374,0 0,0.0124 0,0.0249 0,0.0371 -0.0122,0 -0.0246,0 -0.0496,0 0,0.0249 0,0.0499 0,0.0873 -0.0122,0 -0.0246,0 -0.0371,0 0,0.0244 0,0.0493 0,0.0743 -0.0125,0 -0.025,0 -0.0371,0 0,0.0249 0,0.0496 0,0.0867 -0.0125,0 -0.025,0 -0.0496,0 0,0.025 0,0.0499 0,0.087 -0.0128,0 -0.025,0 -0.0372,0 0,0.025 0,0.0496 0,0.0746 -0.0127,0 -0.0252,0 -0.0377,0 0,0.0122 0,0.0249 0,0.0496 -0.0122,0 -0.0246,0 -0.0496,0 0,0.0249 0,0.0496 0,0.0746 -0.0125,0 -0.0247,0 -0.0371,0 0,0.0246 0,0.0496 0,0.0867 -0.0125,0 -0.025,0 -0.0372,0 0,0.0249 0,0.0499 0,0.0873 -0.0124,0 -0.0249,0 -0.0498,0 0,0.0122 0,0.0244 0,0.0371 -0.0122,0 -0.0247,0 -0.0372,0 0,0.0247 0,0.0496 0,0.0868 -0.0125,0 -0.0246,0 -0.0371,0 0,0.0124 0,0.0249 0,0.0371 -0.0125,0 -0.025,0 -0.0496,0 0,0.0128 0,0.025 0,0.0374 -0.0128,0 -0.025,0 -0.0374,0 0,0.0247 0,0.0499 0,0.0868 -0.0125,0 -0.025,0 -0.0375,0 0,0.0252 0,0.0496 0,0.087 -0.0121,0 -0.0246,0 -0.0496,0 0,0.0125 0,0.0249 0,0.0371 -0.0122,0 -0.0246,0 -0.0371,0 0,0.0125 0,0.025 0,0.0374 -0.0125,0 -0.0249,0 -0.0371,0 0,0.0125 0,0.0247 0,0.0496 -0.0125,0 -0.025,0 -0.0496,0 0,0.025 0,0.0499 0,0.0746 -0.0125,0 -0.025,0 -0.0375,0 0,0.0122 0,0.0247 0,0.0499 -0.0124,0 -0.0246,0 -0.0374,0 0,0.0244 0,0.0493 0,0.0743 -0.0122,0 -0.0246,0 -0.0496,0 0,0.0121 0,0.0246 0,0.0496 -0.0122,0 -0.0246,0 -0.0371,0 0,0.0124 0,0.0249 0,0.0371 -0.0125,0 -0.025,0 -0.0371,0 0,0.0249 0,0.0499 0,0.087 -0.0125,0 -0.025,0 -0.0499,0 0,0.0125 0,0.025 0,0.0372 -0.0122,0 -0.0247,0 -0.0372,0 0,0.0124 0,0.0252 0,0.0374 -0.0124,0 -0.0249,0 -0.0371,0 0,0.0122 0,0.0249 0,0.0496 -0.0125,0 -0.0249,0 -0.0496,0 0,0.0124 0,0.0246 0,0.0371 -0.0128,0 -0.025,0 -0.0374,0 0,0.025 0,0.0499 0,0.087 -0.025,0 -0.0496,0 -0.087,0 0,0.025 0,0.0496 0,0.0746 -0.0122,0 -0.0247,0 -0.0372,0 0,0.0125 0,0.0249 0,0.0499 -0.0125,0 -0.0249,0 -0.0371,0 0,0.0122 0,0.0244 0,0.0368 -0.025,0 -0.0496,0 -0.087,0 0,0.0125 0,0.025 0,0.0374 -0.0125,0 -0.0247,0 -0.0375,0 0,0.0247 0,0.0496 0,0.0868 -0.0121,0 -0.0246,0 -0.0496,0 0,0.0127 0,0.0249 0,0.0374 -0.0124,0 -0.0246,0 -0.0371,0 0,0.0125 0,0.0247 0,0.0496 -0.0125,0 -0.0249,0 -0.0371,0 0,0.0125 0,0.0249 0,0.0374 -0.0125,0 -0.025,0 -0.0499,0 0,0.025 0,0.0493 0,0.0868 -0.0122,0 -0.0247,0 -0.0372,0 0,0.0124 0,0.0246 0,0.0371 -0.0124,0 -0.0246,0 -0.0371,0 0,0.0125 0,0.0249 0,0.0374 -0.0247,0 -0.0496,0 -0.087,0 0,0.0125 0,0.0247 0,0.0496 -0.0125,0 -0.0247,0 -0.0374,0 0,0.0122 0,0.025 0,0.0372 -0.0122,0 -0.0247,0 -0.0496,0 0,0.0127 0,0.0249 0,0.0374 -0.0122,0 -0.0247,0 -0.0372,0 0,0.0124 0,0.0249 0,0.0496 -0.0124,0 -0.0249,0 -0.0371,0 0,0.0124 0,0.0246 0,0.0374 -0.0125,0 -0.0249,0 -0.0496,0 0,0.0122 0,0.0247 0,0.0371 -0.0125,0 -0.025,0 -0.0374,0 0,0.0122 0,0.0247 0,0.0496 -0.0125,0 -0.0247,0 -0.0372,0 0,0.0125 0,0.025 0,0.0372 -0.0124,0 -0.0249,0 -0.0496,0 0,0.0127 0,0.0249 0,0.0371 -0.0127,0 -0.0249,0 -0.0374,0 0,0.0128 0,0.0249 0,0.0499 -0.0122,0 -0.0249,0 -0.0371,0 0,0.0125 0,0.0247 0,0.0371 -0.0125,0 -0.025,0 -0.0499,0 0,0.0125 0,0.025 0,0.0374 -0.0122,0 -0.0247,0 -0.0371,0 0,0.0122 0,0.025 0,0.0496 -0.0247,0 -0.0496,0 -0.0868,0 0,0.0125 0,0.0247 0,0.0372 -0.0125,0 -0.0249,0 -0.0374,0 0,0.0127 0,0.0249 0,0.0374 -0.0125,0 -0.0247,0 -0.0371,0 0,0.0125 0,0.0247 0,0.0496 -0.0125,0 -0.025,0 -0.0499,0 0,0.0122 0,0.025 0,0.0374 -0.0122,0 -0.0247,0 -0.0372,0 0,0.0122 0,0.0247 0,0.0372 -0.0124,0 -0.0249,0 -0.0371,0 0,0.0124 0,0.0246 0,0.0496 -0.0125,0 -0.0249,0 -0.0496,0 0,0.0124 0,0.0246 0,0.0374 -0.0125,0 -0.0249,0 -0.0374,0 0,0.0122 0,0.0246 0,0.0371 -0.0125,0 -0.0247,0 -0.0371,0 0,0.0122 0,0.025 0,0.0496 -0.025,0 -0.0497,0 -0.0871,0 0,0.0122 0,0.0247 0,0.0372 -0.0124,0 -0.0246,0 -0.0371,0 0,0.0127 0,0.0249 0,0.0371 -0.0125,0 -0.025,0 -0.0499,0 0,0.0127 0,0.0249 0,0.0499 -0.0122,0 -0.0247,0 -0.0371,0 0,0.0125 0,0.0249 0,0.0374 -0.0125,0 -0.0247,0 -0.0372,0 0,0.0122 0,0.0247 0,0.0371 -0.0124,0 -0.0249,0 -0.0496,0 0,0.0122 0,0.025 0,0.0496 -0.0124,0 -0.0249,0 -0.0374,0 0,0.0125 0,0.0247 0,0.0372 -0.0125,0 -0.0246,0 -0.0371,0 0,0.0127 0,0.0249 0,0.0371 -0.0125,0 -0.025,0 -0.0496,0 0,0.0125 0,0.0249 0,0.0499 -0.0125,0 -0.025,0 -0.0374,0 0,0.0122 0,0.0249 0,0.0371 -0.0122,0 -0.025,0 -0.0372,0 0,0.0125 0,0.025 0,0.0372 -0.0125,0 -0.0249,0 -0.0496,0 0,0.0124 0,0.0252 0,0.0496 -0.0125,0 -0.0249,0 -0.0374,0 0,0.0127 0,0.0249 0,0.0377 -0.0125,0 -0.0247,0 -0.0371,0 0,0.0122 0,0.0246 0,0.0371 -0.0125,0 -0.025,0 -0.0496,0 0,0.0122 0,0.0247 0,0.0496 -0.0125,0 -0.025,0 -0.0375,0 0,0.0122 0,0.025 0,0.0371 -0.0121,0 -0.0246,0 -0.0371,0 0,0.0128 0,0.025 0,0.0372 -0.0125,0 -0.0249,0 -0.0499,0 0,0.0127 0,0.0249 0,0.0499 -0.0122,0 -0.0246,0 -0.0371,0 0,0.0122 0,0.0246 0,0.0374 -0.0125,0 -0.0247,0 -0.0372,0 0,0.0122 0,0.0246 0,0.0371 -0.0124,0 -0.0249,0 -0.0496,0 0,0.0122 0,0.025 0,0.0496 -0.0124,0 -0.0249,0 -0.0374,0 0,0.0125 0,0.0247 0,0.0372 -0.0124,0 -0.0246,0 -0.0371,0 0,0.0124 0,0.0249 0,0.0374 -0.025,0 -0.0496,0 -0.087,0 0,0.0124 0,0.0246 0,0.0496 -0.0122,0 -0.025,0 -0.0372,0 0,0.0249 0,0.0496 0,0.0742 -0.0249,0 -0.0496,0 -0.0867,0 0,0.0125 0,0.025 0,0.0499 -0.0128,0 -0.025,0 -0.0374,0 0,0.0125 0,0.0247 0,0.0375 -0.0125,0 -0.025,0 -0.0496,0 0,0.0121 0,0.0246 0,0.0371 -0.0125,0 -0.025,0 -0.0374,0 0,0.0122 0,0.0247 0,0.0496 -0.0247,0 -0.0497,0 -0.0868,0 0,0.0125 0,0.0249 0,0.0371 -0.0125,0 -0.0249,0 -0.0374,0 0,0.0128 0,0.025 0,0.0372 -0.0122,0 -0.0247,0 -0.0371,0 0,0.0127 0,0.0252 0,0.0499 -0.0125,0 -0.0247,0 -0.0496,0 0,0.0121 0,0.0246 0,0.0371 -0.0125,0 -0.025,0 -0.0375,0 0,0.0125 0,0.0249 0,0.0374 -0.0246,0 -0.0496,0 -0.0867,0 0,0.0122 0,0.025 0,0.0496 -0.0125,0 -0.0249,0 -0.0374,0 0,0.0247 0,0.0496 0,0.0743 -0.0247,0 -0.0496,0 -0.0868,0 0,0.0125 0,0.0249 0,0.0499 -0.0124,0 -0.0249,0 -0.0371,0 0,0.0122 0,0.0249 0,0.0371 -0.0128,0 -0.0249,0 -0.0371,0 0,0.0125 0,0.0249 0,0.0371 -0.0128,0 -0.0253,0 -0.0499,0 0,0.0128 0,0.0253 0,0.0496 -0.0125,0 -0.025,0 -0.0374,0 0,0.0128 0,0.025 0,0.0377 -0.0122,0 -0.0247,0 -0.0372,0 0,0.0122 0,0.0244 0,0.0372 -0.0249,0 -0.0496,0 -0.087,0 0,0.0122 0,0.0246 0,0.0496 -0.0122,0 -0.0247,0 -0.0371,0 0,0.0122 0,0.0246 0,0.0371 -0.0125,0 -0.0247,0 -0.0496,0 0,0.0125 0,0.025 0,0.0372 -0.0125,0 -0.025,0 -0.0375,0 0,0.0127 0,0.0249 0,0.0498 -0.0124,0 -0.0246,0 -0.0371,0 0,0.0122 0,0.0247 0,0.0375 -0.0125,0 -0.0249,0 -0.0496,0 0,0.0121 0,0.0243 0,0.0368 -0.0249,0 -0.0496,0 -0.0745,0 0,0.0125 0,0.0252 0,0.0496 -0.0125,0 -0.025,0 -0.0496,0 0,0.0128 0,0.025 0,0.0374 -0.0125,0 -0.025,0 -0.0375,0 0,0.0125 0,0.025 0,0.0372 -0.0122,0 -0.0246,0 -0.0371,0 0,0.0127 0,0.0249 0,0.0499 -0.0247,0 -0.0496,0 -0.087,0 0,0.0121 0,0.0249 0,0.0371 -0.0122,0 -0.0247,0 -0.0372,0 0,0.0125 0,0.0249 0,0.0371 -0.0124,0 -0.0249,0 -0.0496,0 0,0.0125 0,0.0253 0,0.0496 -0.0249,0 -0.0496,0 -0.0745,0 0,0.0125 0,0.025 0,0.0377 -0.0125,0 -0.025,0 -0.0496,0 0,0.0122 0,0.0244 0,0.0372 -0.0125,0 -0.025,0 -0.0372,0 0,0.0122 0,0.0246 0,0.0496 -0.0249,0 -0.0498,0 -0.087,0 0,0.0122 0,0.0249 0,0.0371 -0.0125,0 -0.0249,0 -0.0374,0 0,0.0125 0,0.025 0,0.0371 -0.0247,0 -0.0496,0 -0.0867,0 0,0.0125 0,0.025 0,0.0499 -0.0125,0 -0.025,0 -0.0372,0 0,0.0122 0,0.0247 0,0.0372 -0.0249,0 -0.0499,0 -0.087,0 0,0.0124 0,0.0249 0,0.0374 -0.0125,0 -0.0249,0 -0.0374,0 0,0.0122 0,0.0249 0,0.0493 -0.0247,0 -0.0496,0 -0.0868,0 0,0.0128 0,0.0249 0,0.0374 -0.0124,0 -0.0249,0 -0.0374,0 0,0.0125 0,0.025 0,0.0372 -0.0246,0 -0.0496,0 -0.0867,0 0,0.0127 0,0.0249 0,0.0498 -0.025,0 -0.0496,0 -0.0746,0 0,0.0122 0,0.025 0,0.0372 -0.0246,0 -0.0496,0 -0.087,0 0,0.0125 0,0.0249 0,0.0371 -0.0122,0 -0.0246,0 -0.0371,0 0,0.0125 0,0.025 0,0.0499 -0.025,0 -0.0496,0 -0.0868,0 0,0.0125 0,0.0247 0,0.0374 -0.0124,0 -0.0249,0 -0.0374,0 0,0.0122 0,0.0244 0,0.0372 -0.0246,0 -0.0496,0 -0.0867,0 0,0.0121 0,0.0246 0,0.0493 -0.025,0 -0.0496,0 -0.087,0 0,0.0124 0,0.0249 0,0.0374 -0.025,0 -0.0496,0 -0.0746,0 0,0.0122 0,0.0249 0,0.0371 -0.0247,0 -0.0496,0 -0.0867,0 0,0.0128 0,0.025 0,0.0499 -0.025,0 -0.0499,0 -0.0871,0 0,0.0122 0,0.025 0,0.0372 -0.0249,0 -0.0496,0 -0.0745,0 0,0.0124 0,0.0246 0,0.0374 -0.0249,0 -0.0496,0 -0.0867,0 0,0.0122 0,0.0249 0,0.0493 -0.025,0 -0.0499,0 -0.0871,0 0,0.0127 0,0.0252 0,0.0374 -0.0249,0 -0.0496,0 -0.0745,0 0,0.0125 0,0.0247 0,0.0371 -0.025,0 -0.0496,0 -0.087,0 0,0.0125 0,0.025 0,0.0499 -0.0247,0 -0.0496,0 -0.0868,0 0,0.0122 0,0.025 0,0.0372 -0.0371,0 -0.0745,0 -0.1241,0 0,0.0124 0,0.0249 0,0.0371 -0.0125,0 -0.0247,0 -0.0372,0 0,0.0125 0,0.0249 0,0.0496 -0.0374,0 -0.0745,0 -0.1241,0 0,0.0125 0,0.025 0,0.0377 -0.025,0 -0.0499,0 -0.0871,0 0,0.0122 0,0.0244 0,0.0371 -0.0246,0 -0.0496,0 -0.0745,0 0,0.0125 0,0.0247 0,0.0494 -0.0247,0 -0.0496,0 -0.087,0 0,0.0124 0,0.0252 0,0.0374 -0.0247,0 -0.0496,0 -0.0868,0 0,0.0122 0,0.0249 0,0.0371 -0.0371,0 -0.0745,0 -0.1241,0 0,0.0125 0,0.025 0,0.0499 -0.0372,0 -0.0746,0 -0.1242,0 0,0.0122 0,0.0247 0,0.0371 -0.0249,0 -0.0496,0 -0.0745,0 0,0.0125 0,0.0247 0,0.0372 -0.0247,0 -0.0496,0 -0.0868,0 0,0.0124 0,0.0252 0,0.0496 -0.0249,0 -0.0496,0 -0.087,0 0,0.0127 0,0.0249 0,0.0374 -0.0371,0 -0.0746,0 -0.1242,0 0,0.0125 0,0.0247 0,0.0371 -0.0371,0 -0.0745,0 -0.1241,0 0,0.0128 0,0.025 0,0.0499 -0.0371,0 -0.0746,0 -0.1242,0 0,0.0122 0,0.0247 0,0.0372 -0.0246,0 -0.0496,0 -0.0742,0 0,0.0124 0,0.0249 0,0.0374 -0.0499,0 -0.112,0 -0.1741,0 0,0.0122 0,0.0246 0,0.0496 -0.0371,0 -0.0745,0 -0.1241,0 0,0.0124 0,0.0246 0,0.0374 -0.0497,0 -0.0993,0 -0.1613,0 0,0.0122 0,0.0244 0,0.0371 -0.0871,0 -0.1863,0 -0.2858,0 0,0.0122 0,0.0247 0,0.0494 -0.1241,0 -0.248,0 -0.3724,0 0,0.0124 0,0.0252 0,0.0374 -0.1364,0 -0.273,0 -0.4221,0 0,0.0122 0,0.0246 0,0.0371 -0.1366,0 -0.273,0 -0.4096,0 0,0.0128 0,0.0249 0,0.0499 -0.025,0 -0.0496,0 -0.0868,0 0,-0.0128 0,-0.025 0,-0.0499 -0.0374,0 -0.0745,0 -0.1244,0 0,0.0128 0,0.0249 0,0.0499 -0.0867,0 -0.186,0 -0.2855,0 0,0.0122 0,0.0247 0,0.0371 -0.1612,0 -0.3228,0 -0.4966,0 0,0.0125 0,0.0247 0,0.0374 -0.1117,0 -0.2234,0 -0.335,0 0,-0.0127 0,-0.0249 0,-0.0374 -0.1616,0 -0.3229,0 -0.497,0 0,0.0125 0,0.0247 0,0.0374 -0.0121,0 -0.0246,0 -0.0371,0 0,-0.0127 0,-0.0249 0,-0.0374 -0.0125,0 -0.0249,0 -0.0371,0 0,0.0125 0,0.0247 0,0.0374 -0.1488,0 -0.2979,0 -0.4592,0 z m 5.9122,-2.8859 c 0.7962,-0.3722 1.7869,-1.0752 2.3527,-1.7416 l -0.9986,-0.5644 z m -4.0714,-3.4177 c 0,0 2.8111,-0.0165 3.1464,0.4096 -0.2627,0.7571 -2.1977,4.0161 -2.4831,4.14 -0.2855,0.1236 -0.6633,0.0805 -0.6633,0.0805 z m -2.4032,0.0371 0.1686,4.4252 c 0,0 -2.4658,-1.3337 -3.2655,-3.983 1.232,-0.3478 3.0969,-0.4422 3.0969,-0.4422 z m -5.1639,1.0182 c 0.3895,0.7622 0.8405,1.6078 1.326,2.5007 -1.1372,-0.4668 -2.1225,-1.0618 -2.9834,-1.7628 z m 15.4261,-7.35 c -0.2752,1.6294 -0.6582,3.2882 -1.279,5.012 0.0446,0.4748 1.0659,0.7852 1.632,0.9652 1.3458,-1.7768 2.194,-3.894 2.5452,-6.3516 -0.9661,0.125 -1.9321,0.2497 -2.8982,0.3744 z m -7.6977,0.9063 c 1.5743,-0.1778 3.1487,-0.3558 4.7231,-0.5338 -0.0633,1.2566 -0.3229,2.6201 -0.8689,4.1394 -1.3388,-0.2358 -2.6773,-0.4716 -4.0155,-0.7075 0.0538,-0.966 0.1077,-1.9321 0.1613,-2.8981 z M 44.4639,105.37 c 1.5702,0.0867 3.1403,0.1737 4.7107,0.2605 0.0289,0.9411 0.0578,1.8825 0.087,2.8239 -1.3408,-0.0315 -2.6263,0.2313 -3.8738,0.695 -0.44,-1.2041 -0.7481,-2.4641 -0.9239,-3.7794 z m -6.4031,-0.3974 c 0,0 3.7241,-0.2444 3.8443,0.087 0.0598,0.1655 0.1845,1.3632 0.5278,2.552 0.3439,1.1889 0.9065,2.3698 0.9065,2.3698 -0.8487,0.4467 -1.6968,0.8937 -2.5452,1.3408 -1.2333,-1.8516 -2.1067,-3.9994 -2.7334,-6.3496 z m 5.2041,-7.4495 c -1.1441,1.4114 -1.6158,3.1513 -1.4154,5.22 -1.2143,0.0122 -2.4287,0.0247 -3.6428,0.0371 0.3345,-2.3323 1.2861,-4.428 2.8554,-6.2872 0.7342,0.3433 1.4683,0.6868 2.2028,1.0301 z m 5.7484,1.4528 c 0.0289,1.1851 0.0578,2.3706 0.0867,3.556 -1.5454,0.0703 -3.0906,0.1406 -4.6361,0.2112 0.2387,-1.6013 0.6412,-3.0654 1.4029,-4.2267 1.0488,0.153 2.0976,0.3064 3.1465,0.4595 z m 6.7413,-0.745 c 0.8739,1.4593 1.12,2.9024 1.0803,4.3382 -1.5993,-0.0247 -3.1986,-0.0496 -4.7979,-0.0743 -0.0578,-1.1733 -0.1157,-2.346 -0.1738,-3.5189 1.2972,-0.2483 2.5943,-0.4967 3.8914,-0.745 z m 3.9104,4.3382 c 0.9105,0 1.8213,0 2.7318,0 -0.3717,-2.3406 -1.2033,-4.4263 -2.7066,-6.1385 -0.5935,0.292 -1.1868,0.5843 -1.7804,0.8759 1.1543,1.4457 1.7396,3.2001 1.7552,5.2626 z M 55.2651,93.575 c 0.4138,0.6038 0.8277,1.2073 1.2416,1.8111 0.4818,-0.184 0.9634,-0.368 1.4453,-0.5517 -0.8957,-0.4198 -1.7912,-0.8396 -2.6869,-1.2594 z m -3.9356,-0.248 c 0.1116,1.059 0.2233,2.118 0.3353,3.1771 0.8955,-0.1429 1.7912,-0.2855 2.687,-0.4281 -0.8439,-1.0275 -1.8051,-1.9757 -3.0223,-2.749 z m -3.9357,2.8732 c 0.6103,0.0703 1.2203,0.1406 1.8304,0.2109 0.0249,-0.9244 0.0499,-1.8491 0.0745,-2.7737 -1.0879,0.733 -1.6223,1.6143 -1.9049,2.5628 z m -4.2956,-1.3286 c 0.525,0.2772 1.05,0.5544 1.5752,0.832 0.7365,-0.802 1.4729,-1.6033 2.2093,-2.4052 -1.2988,0.3744 -2.5613,0.894 -3.7845,1.5732 z M 30.5455,35.9849 c 0,-2.1911 -0.2962,-4.4762 -0.6808,-7.1144 -0.005,-0.0402 -0.021,-0.0666 -0.0564,-0.0898 -0.1483,-0.1066 -0.5137,-0.1038 -0.76,-0.0669 -0.3232,0.2769 -2.3148,2.0214 -4.4739,5.1199 -1.378,1.978 -2.5526,4.1088 -3.4934,6.344 -1.141,2.7079 -1.9299,5.5698 -2.3585,8.5084 0.7362,0.0732 1.5086,0.4 1.7935,0.5335 0.3478,-0.1998 1.5888,-0.9672 2.8885,-2.4746 1.3232,-1.5344 2.9633,-4.1562 3.4914,-8.085 -1.3844,1.5341 -2.2246,2.3947 -2.4485,2.6246 -0.0258,0.2905 -0.1369,1.2345 -0.5715,2.3851 -0.4734,1.2605 -1.4374,3.0053 -3.342,4.1723 l -0.5347,0.3271 0.1837,-0.5973 c 0.7064,-2.3278 1.8528,-5.663 3.2908,-8.3347 1.584,-2.9486 3.1892,-4.4696 4.7727,-4.5261 l 0.2449,-0.007 v 0.2435 c 0.021,3.6287 -0.436,6.397 -1.4808,8.9757 -0.9692,2.3947 -2.3471,4.4158 -4.0938,6.9774 -1.232,1.8043 -2.6272,3.8523 -4.1474,6.4338 -1.669,2.8387 -2.7445,5.4264 -3.1952,7.6978 -0.3708,1.8646 -0.3161,3.4654 0.1607,4.7599 0.428,1.154 1.1928,1.9979 2.0993,2.3114 1.7031,0.5868 3.102,0.4836 3.9377,-0.2903 0.5377,-0.4969 0.8115,-1.2407 0.8115,-2.1679 0,-0.4671 -0.0709,-0.9771 -0.2126,-1.5276 -0.7968,-3.0889 -1.5999,-4.803 -2.0185,-5.5635 -0.6699,0.6638 -1.3091,1.6211 -1.5152,1.9411 0.1528,0.307 0.5539,1.1376 0.8805,2.0781 0.3092,0.8875 0.4635,1.6211 0.4635,2.1977 0,0.4774 -0.1061,0.8444 -0.3181,1.0976 -0.3722,0.4501 -1.0259,0.54 -1.9451,0.2636 -0.2546,-0.0768 -0.7711,-0.5406 -1.0752,-1.4607 -0.1335,-0.4073 -0.2449,-0.9609 -0.2449,-1.688 0,-0.8337 0.1462,-1.8913 0.5669,-3.2086 0.8546,-2.6716 2.6595,-5.8566 5.3623,-9.4694 4.337,-5.8031 6.5781,-9.896 7.4906,-13.6848 0.3767,-1.5574 0.528,-3.0719 0.528,-4.6361 z m 39.9345,0 c 0,-2.1911 0.2963,-4.4762 0.6809,-7.1144 0.007,-0.0402 0.023,-0.0666 0.0567,-0.0898 0.1494,-0.1066 0.5134,-0.1038 0.7597,-0.0669 0.3237,0.2769 2.3151,2.0214 4.4739,5.1199 1.3779,1.978 2.5546,4.1088 3.4934,6.344 1.1398,2.7079 1.9318,5.5698 2.3585,8.5084 -0.7342,0.0732 -1.5069,0.4 -1.7935,0.5335 -0.3495,-0.1998 -1.5888,-0.9672 -2.8865,-2.4746 -1.3233,-1.5344 -2.9637,-4.1562 -3.4915,-8.085 1.3828,1.5341 2.2247,2.3947 2.4486,2.6246 0.0255,0.2905 0.1369,1.2345 0.5695,2.3851 0.4734,1.2605 1.438,3.0053 3.3423,4.1723 l 0.5343,0.3271 -0.1817,-0.5973 c -0.7083,-2.3278 -1.8533,-5.663 -3.2924,-8.3347 -1.5837,-2.9486 -3.189,-4.4696 -4.7716,-4.5261 l -0.2449,-0.007 -0.001,0.2435 c -0.021,3.6287 0.4365,6.397 1.4814,8.9757 0.9692,2.3947 2.3485,4.4158 4.0952,6.9774 1.2314,1.8043 2.6272,3.8523 4.1474,6.4338 1.6676,2.8387 2.7431,5.4264 3.1938,7.6978 0.3702,1.8646 0.3169,3.4654 -0.161,4.7599 -0.4281,1.154 -1.1931,1.9979 -2.0991,2.3114 -1.7033,0.5868 -3.1025,0.4836 -3.9379,-0.2903 -0.538,-0.4969 -0.8118,-1.2407 -0.8118,-2.1679 0,-0.4671 0.0711,-0.9771 0.2126,-1.5276 0.7974,-3.0889 1.6004,-4.803 2.0174,-5.5635 0.6715,0.6638 1.3102,1.6211 1.5182,1.9411 -0.1547,0.307 -0.5556,1.1376 -0.8824,2.0781 -0.3073,0.8875 -0.462,1.6211 -0.462,2.1977 0,0.4774 0.1065,0.8444 0.3186,1.0976 0.3707,0.4501 1.0238,0.54 1.9431,0.2636 0.2546,-0.0768 0.7716,-0.5406 1.0758,-1.4607 0.1349,-0.4073 0.2443,-0.9609 0.2443,-1.688 0,-0.8337 -0.1448,-1.8913 -0.5664,-3.2086 -0.8552,-2.6716 -2.6594,-5.8566 -5.3625,-9.4694 -4.337,-5.8031 -6.5778,-9.896 -7.4909,-13.6848 -0.3767,-1.5574 -0.5281,-3.0719 -0.5281,-4.6361 z M 45.163,74.5483 c 0.3574,0.7707 0.4898,1.491 0.1916,1.5511 C 44.8849,75.1586 41.0051,70.486 41.0051,70.486 34.4321,63.7985 28.7974,60.0363 25.1368,59.8963 c -0.5511,-0.003 -0.76,-0.1171 -0.8263,-0.4473 -0.0193,-0.0967 -0.0706,-0.3498 -1.8238,-0.4768 -0.7711,0.007 -1.6033,1.3776 -1.6033,1.8377 0,0.5837 0.6162,2.9687 2.6027,5.51 0.9165,1.1676 1.2609,2.4282 1.6277,3.759 0.4813,1.7581 0.9808,3.5725 2.8528,5.4434 0.7342,0.7373 1.4938,1.5508 2.2992,2.4185 2.8119,3.0118 6.3107,6.7672 11.1481,9.5454 l 0.4314,0.2435 -0.4638,0.1834 c -4.4963,1.7379 -9.6463,2.465 -13.1734,2.7683 -2.8174,0.2435 -5.0794,0.2605 -6.0837,0.2571 1.9944,2.1847 3.009,4.2523 3.096,6.3071 0.0816,1.9077 -0.6506,3.5521 -1.2946,5.0029 -0.1369,0.3104 -0.269,0.6037 -0.3898,0.8974 3.7432,0.0635 6.2708,1.1174 7.7437,2.0075 1.3136,0.7906 2.1458,1.6416 2.6,2.2584 0.5249,-3.9254 1.1607,-7.6916 2.6594,-10.81 1.821,-3.7921 4.6786,-6.0573 8.7324,-6.9241 0.0349,-0.0936 0.0752,-0.1837 0.114,-0.2702 0.2041,-0.4671 0.354,-0.8042 -0.1449,-1.7175 l -0.3299,-0.6038 0.6307,0.2702 c 0.6795,0.29 1.3558,0.6468 2.0123,0.9938 1.1305,0.5936 2.1977,1.1574 2.8432,1.1307 h 0.0116 0.009 c 0.6458,0.0267 1.713,-0.5371 2.8429,-1.1307 0.6557,-0.347 1.3331,-0.7038 2.0126,-0.9938 L 55.9026,87.0862 55.574,87.69 c -0.4991,0.9133 -0.3489,1.2504 -0.1428,1.7175 0.0368,0.0865 0.0771,0.1766 0.1139,0.2702 4.0519,0.8668 6.9095,3.132 8.7304,6.9241 1.5001,3.1184 2.1345,6.8846 2.6595,10.81 0.4541,-0.6168 1.2864,-1.4678 2.598,-2.2584 1.4748,-0.8901 4.0025,-1.944 7.7468,-2.0075 -0.1225,-0.2937 -0.2529,-0.5904 -0.3912,-0.8974 -0.6438,-1.4508 -1.3759,-3.0952 -1.2923,-5.0029 0.0867,-2.0548 1.0995,-4.1224 3.094,-6.3071 -1.0043,0.003 -3.2647,-0.0136 -6.0837,-0.2571 -3.5272,-0.3033 -8.6774,-1.0304 -13.1738,-2.7683 l -0.4634,-0.1834 0.4314,-0.2435 c 4.8359,-2.7782 8.3359,-6.5336 11.1481,-9.5488 0.8053,-0.8643 1.565,-1.6778 2.3006,-2.4151 1.8723,-1.8709 2.37,-3.6853 2.8528,-5.4434 0.3654,-1.3342 0.7098,-2.5914 1.6262,-3.759 1.9865,-2.5379 2.6028,-4.9263 2.6028,-5.51 0,-0.4601 -0.8323,-1.8309 -1.6013,-1.8377 -1.7552,0.127 -1.8068,0.3801 -1.8258,0.4768 -0.0663,0.3302 -0.2752,0.4439 -0.8263,0.4473 -3.659,0.14 -9.2934,3.9022 -15.8664,10.5897 0,0 -3.8996,4.6726 -4.371,5.6134 -0.2965,-0.0601 -0.1641,-0.7804 0.1914,-1.5511 0.2738,-0.5936 2.4936,-3.1751 3.8089,-4.3461 l -0.005,-0.003 c 0.6183,-1.057 1.1812,-2.0542 1.679,-2.9347 1.8224,-3.2352 2.922,-5.1865 4.0314,-5.303 2.2697,-0.2407 9.7249,-3.3789 10.7876,-4.9734 l 10e-4,-0.003 0.004,-0.003 c 0.3568,-0.5001 -0.2192,-1.4372 -0.7762,-2.348 -0.174,-0.28 -0.3529,-0.5734 -0.5091,-0.8606 -0.0657,-0.1199 -0.2316,-0.3466 -0.441,-0.6335 -0.9896,-1.3575 -3.0504,-4.1859 -4.4286,-8.6587 -1.7079,-5.5437 -1.7487,-11.6671 -0.1191,-18.1979 -0.1031,0.0635 -0.2837,0.2537 -0.3996,0.6738 -0.0573,0.2101 -0.605,2.0449 -2.0104,2.2584 -1.2654,0.193 -2.7513,-1.0074 -4.4144,-3.5691 -0.0691,-0.097 -0.1428,-0.2231 -0.2219,-0.3569 -0.0533,-0.0899 -0.1355,-0.2299 -0.2061,-0.33 -0.0289,0.1534 -0.0612,0.4502 -0.0612,1.0134 l 0.001,0.2872 c 0.003,1.781 0.011,4.2194 -1.3728,5.5703 -0.686,0.667 -1.6421,0.9905 -2.8483,0.957 h 0.002 -0.005 c 0,0 0.002,0 0.003,0 -0.1046,0 -0.2429,-0.0198 -0.4022,-0.0402 -0.1449,-0.0165 -0.4057,-0.0465 -0.5718,-0.0465 0.118,0.1332 0.4156,0.407 1.1673,0.9207 4.4708,2.8851 7.2205,6.3836 8.4022,10.6832 1.0171,3.7054 0.7129,7.3641 0.4439,10.5962 -0.0609,0.7203 -0.1173,1.4043 -0.1576,2.0613 l -0.011,0.1902 -0.1871,0.0301 c -0.3155,0.0533 -0.6214,0.1063 -0.9159,0.1601 -2.3491,0.4269 -4.2052,0.764 -6.4443,-1.7946 -2.0846,-2.3814 -3.0183,-4.4127 -2.9432,-6.3975 l 0.01,-0.2265 h 0.2285 c 1.3833,0 2.7805,-0.9337 3.2485,-2.1716 0.432,-1.1404 0.0184,-2.3743 -1.1633,-3.4886 -0.4575,0.4473 -1.325,1.1574 -1.982,1.6914 -0.3028,0.2498 -0.5635,0.4598 -0.6971,0.5769 -0.2188,0.1899 -0.5023,0.1735 -0.7197,-0.0434 -0.4008,-0.4039 -0.5556,-1.4241 0.1066,-2.1812 0.5808,-0.6639 1.7323,-0.7906 2.471,-0.7974 -2.7468,-2.5146 -4.4819,-5.3099 -4.9374,-6.2238 -0.3915,-0.7804 -1.4412,-0.7537 -2.2057,-0.7373 -0.1046,0.003 -0.2026,0.007 -0.2931,0.007 h -0.341 c -0.0921,0 -0.1902,-0.003 -0.2934,-0.007 -0.7659,-0.0164 -1.8155,-0.0431 -2.207,0.7373 -0.4555,0.9139 -2.1878,3.7092 -4.9357,6.2238 0.7311,0.007 1.8641,0.1366 2.4435,0.7974 0.657,0.7503 0.5122,1.7943 0.1238,2.1846 -0.2134,0.2169 -0.4938,0.2299 -0.7112,0.04 -0.1335,-0.1171 -0.3943,-0.3271 -0.697,-0.5769 -0.6554,-0.534 -1.525,-1.2441 -1.9834,-1.6914 -1.1804,1.1143 -1.5939,2.3482 -1.1625,3.4886 0.4686,1.2379 1.8658,2.1716 3.2485,2.1716 h 0.229 l 0.01,0.2265 c 0.0751,1.9814 -0.8586,4.0161 -2.9449,6.3975 -2.2374,2.5586 -4.0941,2.2215 -6.4426,1.7946 -0.2945,-0.0538 -0.6007,-0.1068 -0.9159,-0.1601 l -0.1885,-0.0301 -0.01,-0.1936 c -0.0338,-0.7169 -0.0916,-1.4672 -0.1514,-2.2612 -0.2432,-3.1955 -0.5185,-6.8142 0.5054,-10.4865 1.1917,-4.2723 3.9189,-7.738 8.3341,-10.5896 0.7521,-0.5137 1.0503,-0.7875 1.1674,-0.9207 -0.1659,0 -0.4267,0.03 -0.5715,0.0465 -0.1593,0.0204 -0.2994,0.0402 -0.4022,0.0402 0.001,0 0.003,0 0.003,0 h -0.005 c 0,0 0,0 0.002,0 -1.2062,0.0335 -2.1637,-0.29 -2.8483,-0.957 -1.3842,-1.3509 -1.3762,-3.7893 -1.3714,-5.5703 V 25.973 c 0,-0.5632 -0.0323,-0.86 -0.0612,-1.0134 -0.0706,0.1001 -0.1548,0.2401 -0.2061,0.3334 -0.0791,0.1304 -0.1514,0.2565 -0.222,0.3535 -1.663,2.5617 -3.149,3.7621 -4.4146,3.5691 -1.4038,-0.2135 -1.9528,-2.0483 -2.0107,-2.2584 -0.1159,-0.4201 -0.2959,-0.6103 -0.3991,-0.6738 1.6277,6.5308 1.5874,12.6513 -0.119,18.1945 -1.3768,4.4762 -3.437,7.3012 -4.4272,8.6621 -0.2109,0.2869 -0.3767,0.5136 -0.4425,0.6335 -0.1562,0.2872 -0.335,0.5806 -0.5091,0.8606 -0.557,0.9108 -1.1316,1.8479 -0.7741,2.348 l 0.002,0.003 0.001,0.003 c 1.0641,1.5945 8.5178,4.7327 10.7881,4.9734 1.1089,0.1165 2.2102,2.0678 4.0326,5.303 0.4955,0.8805 1.059,1.8777 1.6772,2.9347 l -0.0144,0.0102 c 1.3152,1.1773 3.5257,3.7457 3.799,4.3393 z M 59.8838,58.295 c -0.557,-0.9507 -1.396,-1.6909 -2.4275,-2.1376 -1.1254,-0.4904 -2.4259,-0.5904 -3.6596,-0.2837 -1.1956,0.2967 -2.3065,0.9637 -3.242,1.9343 -0.9337,-0.9706 -2.0446,-1.6376 -3.2408,-1.9343 -1.2331,-0.3067 -2.5336,-0.2067 -3.659,0.2837 -1.0321,0.4467 -1.8722,1.1869 -2.4278,2.1376 -0.5908,1.0143 -0.8272,2.2215 -0.6843,3.4954 0.4201,3.7358 3.1782,8.0887 6.1001,12.7012 1.1141,1.7578 2.2663,3.5754 3.2857,5.3666 0.1289,0.227 0.3719,0.3668 0.6312,0.3668 0.2623,0 0.5023,-0.1398 0.6308,-0.3668 1.0173,-1.7878 2.1656,-3.5952 3.2743,-5.3501 2.9222,-4.616 5.6834,-8.9751 6.1015,-12.7177 0.1449,-1.2739 -0.0935,-2.4811 -0.6826,-3.4954 z m -8.9571,0.6937 c -3.4192,-4.1423 -9.2087,-1.9877 -8.7543,2.8017 0.4536,4.7928 5.245,11.0568 8.6284,17.2409 3.6003,-6.0639 8.5969,-12.1575 9.2171,-16.9271 0.6197,-4.773 -5.0907,-7.1308 -8.6519,-3.1087 -0.1675,0.1635 -0.3603,0.0737 -0.4393,-0.007 z M 49.8543,30.058 h 1.2107 v 1.2974 h 1.3555 v 1.2107 H 51.065 v 1.4145 h -1.2107 v -1.4145 h -1.3552 v -1.2107 h 1.3552 z m 18.3677,83.9463 -0.0437,0.0434 c -0.4739,0.4719 -1.2458,1.2404 -1.7121,1.3907 -0.1123,0.036 -0.2305,-0.006 -0.2974,-0.0953 l -3e-4,3e-4 -5e-4,-0.001 -0.002,-0.003 -6e-4,6e-4 c -0.0553,-0.0757 -0.1301,-0.169 -0.2132,-0.2722 -0.3517,-0.4382 -0.841,-1.0476 -0.841,-1.5185 0,-0.0796 0.0349,-0.1516 0.0899,-0.2012 l 0.9232,-0.9553 h -3e-4 l 0.8036,-0.8736 c -0.079,-0.1338 -0.1666,-0.2951 -0.1666,-0.396 v -10e-4 c 0,-0.0473 0.0124,-0.0918 0.0337,-0.1307 0.0451,-0.1057 0.1264,-0.2281 0.1789,-0.3072 l 0.01,-0.0136 0.0249,-0.0383 c 0.0814,-0.1242 0.2483,-0.1585 0.3725,-0.0771 0.007,0.005 0.0139,0.009 0.0204,0.0144 l 0.3507,0.2637 c 0.2335,-0.1435 0.441,-0.3391 0.6491,-0.5355 0.193,-0.182 0.3864,-0.3642 0.6089,-0.5193 0.1097,-0.0763 0.2568,-0.0598 0.3475,0.0326 0.1287,0.1159 0.2171,0.1752 0.2784,0.2163 0.1051,0.0703 0.1661,0.1117 0.2205,0.2222 0.0578,0.1182 0.0573,0.2344 0.0553,0.5077 l -9e-4,0.2163 -3e-4,0.019 h 3e-4 l -0.0448,0.6009 -2e-4,0.003 h 2e-4 c -0.0238,0.2682 -0.1635,0.4743 -0.3021,0.6789 -0.1038,0.1531 -0.2072,0.3059 -0.2072,0.4408 v 10e-4 h -9e-4 c 10e-4,0.7521 1.7425,2.835 2.7125,3.9949 0.1791,0.2146 0.3308,0.396 0.4722,0.5729 0.0927,0.1159 0.0737,0.2854 -0.0419,0.3779 l -0.008,0.006 3e-4,6e-4 -0.3965,0.2953 c -0.1137,0.0842 -0.2722,0.0652 -0.3632,-0.0396 l -8e-4,5e-4 c -1.0009,-1.1494 -1.9644,-2.2147 -2.9282,-3.2805 z m -2.4078,8.674 3e-4,3e-4 z m -0.9054,1.9012 -0.003,-5e-4 -0.019,-0.007 c -0.258,-0.0839 -0.4998,-0.1925 -0.724,-0.322 -0.2279,-0.1316 -0.4402,-0.2869 -0.6347,-0.4609 -0.9853,-0.8816 -1.4995,-2.2397 -1.4995,-3.583 v -0.005 h 0.001 c 0,-0.2772 0.021,-0.5504 0.061,-0.8169 0.006,-0.0437 0.0136,-0.0882 0.0212,-0.1321 0.0392,-0.2251 0.0922,-0.4484 0.1574,-0.667 0.0229,-0.0774 0.0782,-0.1369 0.1465,-0.1684 -0.8932,-0.612 -1.6863,-1.3382 -1.6863,-2.5197 h -10e-4 v -8e-4 h 10e-4 c 3e-4,-0.161 0.0723,-0.3147 0.1865,-0.4255 0.1108,-0.1074 0.2648,-0.1786 0.4337,-0.1794 h 9e-4 v -9e-4 h 0.002 6e-4 v 9e-4 l 0.0125,2e-4 c 0.9757,0.007 2.8857,0.7747 4.5428,1.827 1.6934,1.0751 3.1467,2.4664 3.1476,3.6958 h 8e-4 v 10e-4 6e-4 h -8e-4 c -3e-4,0.4257 -0.2138,1.3388 -0.5281,2.1362 -0.3396,0.8606 -0.8209,1.6106 -1.3499,1.6123 v 9e-4 h -8e-4 c -0.5808,0 -0.9905,-0.2061 -1.2926,-0.5403 -0.2849,-0.3158 -0.4598,-0.7373 -0.5891,-1.1999 l -8e-4,-0.003 v 0 c -0.0587,-0.2106 -0.1194,-0.4847 -0.1857,-0.7832 -0.1735,-0.7832 -0.3875,-1.7475 -0.7016,-2.1492 l -5e-4,6e-4 -10e-4,-10e-4 c -0.006,-0.007 -0.0104,-0.0141 -0.0153,-0.0212 -0.299,-0.3682 -0.8087,-0.6959 -1.3416,-1.0366 0.527,0.7276 0.7458,1.8629 0.9054,2.6909 0.0836,0.4348 0.1494,0.7741 0.2015,0.8373 0.1942,0.2339 0.3634,0.364 0.5139,0.4797 0.3189,0.2446 0.5698,0.4376 0.8062,1.1599 0.0335,0.1026 0.002,0.2103 -0.0711,0.2795 l -0.2211,0.2307 c -0.0732,0.0763 -0.1803,0.0995 -0.275,0.0698 z m -14.824,-3.0634 0.1544,1.0046 c 0.1852,-0.1137 0.3479,-0.2276 0.3479,-0.3795 0,-0.309 -0.203,-0.5038 -0.5023,-0.6251 z m -1.2393,9.3688 -0.0737,-2.0103 v -0.008 l -0.0139,-2.0546 c -0.1429,-0.2611 -0.2824,-0.4651 -0.4085,-0.6505 l -3e-4,3e-4 c -0.3767,-0.5534 -0.6505,-0.9556 -0.6505,-2.0557 0,-0.0233 0.003,-0.0474 0.008,-0.0729 0.004,-0.0184 0.0102,-0.0363 0.0176,-0.0533 0.0725,-0.1732 0.3069,-0.32 0.5578,-0.4204 v -5e-4 c 0.1313,-0.0525 0.2738,-0.097 0.3949,-0.1262 l 0.197,-2.0109 c 0.003,-0.0331 0.0125,-0.0646 0.0261,-0.0929 -0.0737,-0.002 -0.1469,-0.002 -0.218,-0.002 v -0.001 c -0.2444,0 -0.4828,0.0102 -0.6764,0.0184 h -10e-4 l -0.1809,0.007 c -0.1485,0.006 -0.2738,-0.11 -0.2794,-0.2586 v -0.007 l -0.008,-0.5474 v -0.003 h -10e-4 v -0.003 h 10e-4 c 0.001,-0.5256 0.2608,-0.8518 0.6389,-1.0469 0.3342,-0.1723 0.7606,-0.229 1.1645,-0.2296 v -8e-4 h 0.006 8e-4 v 8e-4 c 0.9247,3e-4 1.8125,0.4264 2.4664,1.0809 0.6534,0.6536 1.078,1.54 1.0786,2.4619 h 9e-4 v 0.002 c 0,1.7523 -0.8516,2.2932 -1.6852,2.8224 -0.3887,0.2466 -0.773,0.491 -1.0211,0.8657 -0.003,0.005 -0.0201,0.1531 -0.0445,0.3895 -0.0278,0.2707 -0.0553,0.6344 -0.0802,1.0338 -0.0258,0.411 -0.0485,0.8416 -0.0669,1.2421 -0.0383,0.8258 -0.0621,1.5616 -0.0618,1.7723 0,0.1485 -0.1205,0.2692 -0.269,0.2692 l -0.019,-10e-4 v 10e-4 l -0.5491,-0.0394 c -0.1423,-0.01 -0.2508,-0.1292 -0.2505,-0.2701 z m -22.4159,-18.6242 -1.1531,0.9264 c -0.1156,0.0932 -0.2854,0.0748 -0.3787,-0.0411 -0.009,-0.0116 -0.0173,-0.0238 -0.0244,-0.0363 l -0.2914,-0.481 c -0.0561,-0.0933 -0.049,-0.2078 0.009,-0.2923 l -3e-4,-3e-4 c 0.7033,-1.0154 1.0891,-1.6254 1.2935,-2.266 0.2032,-0.6381 0.237,-1.3433 0.237,-2.5506 v -6e-4 h 10e-4 c 3e-4,-0.1896 0.1304,-0.4334 0.3039,-0.6196 0.1771,-0.19 0.4158,-0.3402 0.6321,-0.341 v -0.001 h 8e-4 9e-4 c 0.0167,0 0.0332,0.001 0.049,0.004 0.347,0.0448 0.7444,0.5437 1.0795,0.964 0.0861,0.108 0.1681,0.2098 0.2372,0.2912 0.9057,-0.618 1.8122,-1.2357 2.7655,-1.7901 0.1287,-0.0746 0.2937,-0.0306 0.3682,0.0981 0.0224,0.0385 0.0346,0.0802 0.0366,0.1218 l 0.0207,0.1619 c 0.001,0.0113 0.002,0.0224 0.002,0.0337 h 9e-4 v 10e-4 h -9e-4 l -5e-4,0.015 c -0.0131,0.8427 -1.023,1.7337 -1.7674,2.3899 l -0.0703,0.0618 c 0.0232,5e-4 0.0462,0.001 0.0697,0.001 0.4329,0 0.8657,-0.0927 1.298,-0.1854 0.4595,-0.098 0.919,-0.1967 1.4077,-0.1967 v -8e-4 c 0.1839,0 0.3725,0.0192 0.5567,0.0671 0.1902,0.0494 0.3725,0.1293 0.5366,0.2492 0.1199,0.0879 0.146,0.2568 0.0581,0.377 -0.0116,0.0159 -0.0244,0.0298 -0.0385,0.0422 -1.3363,1.306 -2.4891,1.3196 -3.3602,1.3298 -0.8705,0.0102 -1.3873,0.0161 -1.3873,2.1869 v 0.006 h -10e-4 c 0,0.396 0.0292,0.8115 0.0578,1.2257 0.0292,0.4212 0.0587,0.8421 0.0587,1.2566 v 0.002 h -0.001 c -3e-4,0.3183 -0.0688,0.65 -0.1743,0.9691 l -0.005,0.0151 c -0.0159,0.0467 -0.032,0.0929 -0.0485,0.1374 -0.0958,0.26 -0.212,0.5091 -0.3305,0.7322 -0.07,0.1318 -0.2336,0.182 -0.3651,0.112 -0.0354,-0.0187 -0.0646,-0.0451 -0.0876,-0.0748 -0.8195,-0.9275 -0.9774,-1.9939 -1.1304,-3.0323 -0.0973,-0.6593 -0.1925,-1.307 -0.4644,-1.868 z m 6.4778,6.109 c 1.8459,-0.6135 2.4157,-2.4458 2.8448,-3.8257 l 0.003,-0.01 c 0.0964,-0.3098 0.1868,-0.6004 0.2846,-0.8563 -0.1465,0.0754 -0.2885,0.1576 -0.4257,0.2457 -0.2376,0.1528 -0.4612,0.3249 -0.6704,0.5125 -1.0809,0.9715 -1.7654,2.3675 -1.99,3.8183 -0.007,0.0431 -0.0229,0.0819 -0.0467,0.1154 z m -0.182,3.9495 c -0.0337,-0.4592 -0.3147,-0.9012 -0.5916,-1.3371 -0.3291,-0.5182 -0.654,-1.0299 -0.654,-1.639 v -0.003 c 0,-0.0124 10e-4,-0.0249 0.003,-0.0368 0.009,-0.1364 0.0584,-0.2761 0.104,-0.4034 l -8e-4,-5e-4 c 0.0195,-0.0548 0.0385,-0.1078 0.0459,-0.1347 0.0315,-0.1131 0.131,-0.1899 0.2418,-0.1973 0.066,-0.005 0.1307,-0.011 0.1947,-0.0181 -0.1145,-0.0315 -0.2463,-0.0856 -0.3543,-0.1304 l -0.0125,-0.006 c -0.0442,-0.0181 -0.0827,-0.034 -0.1117,-0.0442 -0.1349,-0.0476 -0.208,-0.1922 -0.1695,-0.328 h -2e-4 l 5e-4,-0.003 0.003,-0.01 c 0.0624,-0.2208 0.1522,-0.4862 0.2668,-0.7807 0.1142,-0.2934 0.2537,-0.6168 0.4144,-0.953 0.8413,-1.7569 2.2691,-3.8194 3.8234,-3.8194 h 10e-4 v 0.001 c 0.1165,6e-4 0.2591,0.0375 0.3693,0.1018 l 0.0196,0.0122 c 0.0961,0.0604 0.1743,0.1432 0.2132,0.2466 0.155,-0.1431 0.3398,-0.2236 0.5714,-0.2236 0.4918,0 0.5494,0.3957 0.5494,0.7259 l -0.003,0.1046 -2e-4,0.0102 -9e-4,0.0564 h 10e-4 v 0.004 h -10e-4 v 3e-4 0.007 c -8e-4,1.0361 -0.1103,3.3256 -0.5743,5.3578 -0.485,2.1225 -1.3671,3.977 -2.9401,3.9818 v 8e-4 h -0.005 c -0.2225,0 -0.4416,-0.034 -0.6537,-0.0915 -0.2029,-0.0553 -0.4039,-0.1347 -0.5972,-0.2271 -0.0902,-0.0431 -0.1449,-0.1307 -0.1517,-0.2236 z m 12.0523,-1.8494 v 0.003 c 0,0.0102 -2e-4,0.0204 -0.001,0.0306 -0.007,0.1619 -0.0564,0.5919 -0.1173,1.1239 -0.1318,1.1506 -0.3858,2.7723 -0.3541,2.7922 0.0885,0.0555 0.1338,0.1536 0.1253,0.2508 l -6e-4,0.0204 v 10e-4 0.008 c -0.0127,0.5204 -0.0564,1.0247 -0.0997,1.5279 v 8e-4 l -3e-4,0.003 -6e-4,0.007 c -0.0487,0.5663 -0.0969,1.1313 -0.0998,1.6764 l 0.0128,0.0309 c 0.1069,0.2523 0.4121,0.9714 0.4382,1.3002 0.0116,0.1486 -0.0992,0.2787 -0.248,0.2903 -0.0425,0.003 -0.0831,-0.004 -0.1205,-0.0187 -0.5961,-0.212 -1.108,-0.5859 -1.5451,-1.0369 -0.4298,-0.4442 -0.7884,-0.9644 -1.0832,-1.4771 l -10e-4,-0.003 -10e-4,3e-4 -0.002,-0.003 v -3e-4 c -0.2189,-0.3833 -0.5786,-1.3105 -0.8864,-2.1036 -0.1213,-0.3124 -0.2339,-0.6029 -0.322,-0.8223 l -0.9525,3.5322 c -0.0385,0.144 -0.1865,0.2293 -0.3302,0.1911 -0.0414,-0.0111 -0.078,-0.0315 -0.108,-0.0581 -0.0326,-0.0233 -0.0913,-0.0601 -0.1551,-0.1007 -0.284,-0.182 -0.6667,-0.4271 -0.6667,-0.7313 v -10e-4 h 0.001 c 2e-4,-0.7234 0.555,-3.1774 1.2276,-5.4417 0.6962,-2.3445 1.5608,-4.5074 2.1762,-4.5105 h 0.001 v -8e-4 h 9e-4 c 0.0258,0 0.0513,0.003 0.0751,0.0102 l 0.0873,0.0161 c 0.1176,0.0218 0.2035,0.1162 0.2186,0.2285 l 0.439,3.1331 c 0.0854,0.4499 0.1973,1.0185 0.3773,1.5494 0.0975,0.2878 0.2149,0.5633 0.3583,0.8003 l 0.0204,-0.2467 c 0.1205,-1.4431 0.3133,-3.7522 0.9329,-4.238 0.1171,-0.0913 0.2863,-0.0706 0.3779,0.0465 0.0261,0.0334 0.0431,0.0708 0.0513,0.1097 0.1752,0.6482 0.174,1.3147 0.1732,1.9683 v 0.142 z m 9.5658,8.9777 -0.002,-0.009 -0.002,-0.0119 c -0.0122,-0.0592 -0.023,-0.112 -0.0315,-0.1568 -0.013,-0.0703 -0.0244,-0.1312 -0.0306,-0.1683 -0.0496,-0.2889 -0.0873,-0.58 -0.1114,-0.8686 -0.0102,-0.1255 0.0677,-0.2387 0.182,-0.2778 l 1.0987,-0.4606 c -0.0114,-0.8408 -0.0587,-1.694 -0.1058,-2.5472 -0.0544,-0.9856 -0.1094,-1.9721 -0.1094,-2.9466 h 0.001 c 0,-0.5117 0.0116,-1.0245 0.0538,-1.5242 0.0434,-0.5125 0.1188,-1.0236 0.2464,-1.5253 0.0291,-0.1174 0.1318,-0.1976 0.2468,-0.2041 l 0.2835,-0.0372 c 0.133,-0.0173 0.2563,0.0655 0.2934,0.19 v 0 c 0.6369,2.1242 0.9,4.3086 1.1622,6.4902 l 0.0374,0.3081 c 0.1072,-0.0179 0.2189,-0.0374 0.3311,-0.0576 0.4201,-0.0745 0.8447,-0.1502 1.2841,-0.1502 v -10e-4 c 0.8957,0 1.129,0.6947 1.3507,1.3552 l 0.0459,0.1358 c 0.0329,0.0981 0.007,0.2015 -0.0601,0.2716 l -0.003,0.002 -0.003,0.003 c -1.2958,1.3695 -4.0329,1.9897 -5.8102,2.3928 l -0.0261,0.006 c -0.1451,0.0326 -0.2894,-0.0584 -0.3217,-0.2035 l -9e-4,-0.005 z m 22.4774,-16.7976 z m 0,0 v 0 h -10e-4 -0.006 c -0.0338,3e-4 -0.0652,-0.002 -0.0942,-0.007 -0.01,-10e-4 -0.0192,-0.004 -0.0286,-0.006 -0.6831,-0.1415 -2.1319,-1.6475 -3.107,-2.6612 -0.2169,-0.2259 -0.4099,-0.4269 -0.5599,-0.5777 -0.4555,0.4841 -0.7563,0.6585 -1.0953,0.8546 -0.2117,0.1225 -0.4402,0.2549 -0.7387,0.4913 -0.1043,0.083 -0.2509,0.0757 -0.3467,-0.01 l -5e-4,5e-4 -0.001,-10e-4 -0.002,-0.002 -0.0107,-0.0105 c -0.0349,-0.0323 -0.0692,-0.0657 -0.1012,-0.1009 -0.005,-0.005 -0.008,-0.0102 -0.0125,-0.0153 -0.032,-0.036 -0.0621,-0.0714 -0.0879,-0.1066 -0.1664,-0.2234 -0.2676,-0.4867 -0.2676,-0.7804 0,-0.3883 0.1316,-0.7435 0.2645,-1.1012 l 0.006,-0.0145 c 0.1165,-0.3149 0.2321,-0.6324 0.2321,-0.9371 h -0.001 v -0.002 h 0.001 c 0,-0.1094 -0.0272,-0.2429 -0.07,-0.3742 l -0.004,-0.0153 -0.0181,-0.051 -3e-4,3e-4 c -0.0399,-0.1083 -0.0898,-0.2092 -0.1423,-0.2895 -0.0816,-0.1247 -0.0467,-0.2922 0.078,-0.3738 0.0181,-0.0117 0.0371,-0.0213 0.0567,-0.0284 l 0.003,-0.001 -3e-4,-3e-4 c 0.0459,-0.0196 0.0947,-0.0369 0.1451,-0.051 0.0474,-0.0134 0.0984,-0.0247 0.1514,-0.0335 0.1755,-0.0289 0.3677,-0.0266 0.5428,0.0102 0.2152,-0.3529 0.4213,-0.6996 0.6186,-1.0411 0.2403,-0.4156 0.4719,-0.8286 0.6947,-1.2385 0.0712,-0.1307 0.2347,-0.1789 0.3651,-0.1077 l 0.0182,0.0102 0.003,0.002 3e-4,-3e-4 0.001,9e-4 0.008,0.005 c 0.1174,0.0845 0.1951,0.1474 0.245,0.1786 0.0822,0.0666 0.1598,0.1372 0.2318,0.2115 0.3819,0.3926 0.6217,0.8926 0.6217,1.4794 0,0.4535 -0.1001,0.8949 -0.2466,1.3209 -0.1197,0.3479 -0.2719,0.6869 -0.4255,1.014 0.1865,0.1777 0.3937,0.3659 0.6131,0.5641 1.0936,0.9887 2.4724,2.2354 2.7286,3.4721 0.0295,0.1457 -0.0646,0.288 -0.21,0.3175 -0.017,0.003 -0.034,0.005 -0.0507,0.005 z M 49.5246,18.443 l -1.927,2.4095 c -0.1462,-0.0341 -1.2537,-0.2824 -2.1826,-0.4907 0.1797,-0.2789 0.2831,-0.6063 0.2831,-0.9567 0,-1.0176 -0.879,-1.8445 -1.9612,-1.8445 -1.0817,0 -1.9577,0.8269 -1.9577,1.8445 0,1.0205 0.876,1.8476 1.9577,1.8476 0.1343,0 0.2653,-0.0125 0.3923,-0.0368 l 0.0343,1.6177 c -0.4763,-0.1154 -1.4641,-0.366 -2.3026,-0.6511 0.0527,-0.1667 0.0811,-0.3433 0.0811,-0.5261 0,-1.0208 -0.8776,-1.8482 -1.9593,-1.8482 -1.08,0 -1.9591,0.8274 -1.9591,1.8482 0,1.017 0.8791,1.8445 1.9591,1.8445 0.3112,0 0.6057,-0.0689 0.8674,-0.1908 0.9949,1.4752 2.2096,4.5088 2.9755,6.4213 l 0.4912,1.2206 0.1931,-0.0467 c 1.9508,-0.4672 3.9055,-0.7339 5.9499,-0.7974 2.0443,0.0635 3.9991,0.3302 5.9502,0.7974 l 0.1913,0.0467 0.4927,-1.2206 c 0.7659,-1.9122 1.9814,-4.9453 2.9758,-6.4207 0.2614,0.1216 0.5547,0.1902 0.8654,0.1902 1.0837,0 1.9593,-0.8275 1.9593,-1.8445 0,-1.0208 -0.8756,-1.8482 -1.9593,-1.8482 -1.0805,0 -1.9593,0.8274 -1.9593,1.8482 0,0.1828 0.0284,0.3594 0.0814,0.5264 -0.8382,0.2848 -1.8253,0.5354 -2.3012,0.6508 l 0.0337,-1.6177 c 0.1265,0.0241 0.2574,0.0368 0.3912,0.0368 1.0817,0 1.9593,-0.8271 1.9593,-1.8476 0,-1.0176 -0.8776,-1.8445 -1.9593,-1.8445 -1.082,0 -1.9576,0.8269 -1.9576,1.8445 0,0.3501 0.1032,0.6775 0.2823,0.9564 -0.9292,0.2081 -2.0372,0.4567 -2.1838,0.491 L 51.381,18.4254 c 0.6044,-0.3143 1.014,-0.9204 1.014,-1.6154 0,-1.0205 -0.8776,-1.8479 -1.9596,-1.8479 -1.0817,0 -1.9607,0.8274 -1.9607,1.8479 0,0.7084 0.426,1.324 1.0499,1.633 z m 11.4106,4.0805 c -0.5425,0 -0.9819,-0.3903 -0.9819,-0.8671 0,-0.4802 0.4394,-0.8674 0.9819,-0.8674 0.5426,0 0.9836,0.3872 0.9836,0.8674 0,0.4768 -0.441,0.8671 -0.9836,0.8671 z M 57.181,20.2719 c -0.5425,0 -0.9819,-0.3866 -0.9819,-0.8668 0,-0.4774 0.4394,-0.8674 0.9819,-0.8674 0.5423,0 0.9836,0.39 0.9836,0.8674 0,0.4802 -0.4413,0.8668 -0.9836,0.8668 z m -6.7456,-2.5951 c -0.5425,0 -0.9836,-0.3866 -0.9836,-0.8668 0,-0.4802 0.4411,-0.8705 0.9836,-0.8705 0.5411,0 0.9822,0.3903 0.9822,0.8705 0,0.4802 -0.4411,0.8668 -0.9822,0.8668 z m -6.6985,2.5951 c -0.5406,0 -0.982,-0.3866 -0.982,-0.8668 0,-0.4774 0.4414,-0.8674 0.982,-0.8674 0.5425,0 0.9836,0.39 0.9836,0.8674 0,0.4802 -0.4411,0.8668 -0.9836,0.8668 z m -3.7542,2.2516 c -0.5426,0 -0.982,-0.3903 -0.982,-0.8671 0,-0.4802 0.4394,-0.8674 0.982,-0.8674 0.5425,0 0.9836,0.3872 0.9836,0.8674 0,0.4768 -0.4411,0.8671 -0.9836,0.8671 z m 7.1013,4.2525 c 0,-1.7079 1.5117,-3.0917 3.3758,-3.0917 1.864,0 3.3743,1.3838 3.3743,3.0917 0,1.7079 -1.5103,3.0884 -3.3743,3.0884 -1.8641,0 -3.3758,-1.3805 -3.3758,-3.0884 z"
     style="fill:#1b1918;fill-rule:evenodd"
     id="path101" />
</svg>
